<svg xmlns="http://www.w3.org/2000/svg" xmlns:xlink="http://www.w3.org/1999/xlink" contentStyleType="text/css" height="1053px" preserveAspectRatio="none" style="width:1134px;height:1053px;background:#777777;" version="1.1" viewBox="0 0 1134 1053" width="1134px" zoomAndPan="magnify"><defs/><g><rect fill="#777777" height="1053" style="stroke:none;stroke-width:1.0;" width="1134" x="0" y="0"/><!--class Main--><g id="elem_Main"><rect codeLine="3" fill="#2E2E2E" height="54.8047" id="Main" rx="2.5" ry="2.5" style="stroke:#1B1B1B;stroke-width:0.5;" width="78" x="7" y="45.42"/><ellipse cx="30.7" cy="58.42" fill="#ADD1B2" rx="8" ry="8" style="stroke:#181818;stroke-width:1.0;"/><path d="M32.825,61.9825 Q32.2469,62.2794 31.6219,62.42 Q31.0125,62.5762 30.3406,62.5762 Q28.3406,62.5762 27.1688,61.4669 Q25.9969,60.3419 25.9969,58.42 Q25.9969,56.4981 27.1688,55.3731 Q28.3406,54.2481 30.3406,54.2481 Q31.0125,54.2481 31.6219,54.4044 Q32.2469,54.5606 32.825,54.8575 L32.825,56.5137 Q32.2469,56.1231 31.6844,55.9356 Q31.1219,55.7481 30.5125,55.7481 Q29.4031,55.7481 28.7625,56.4669 Q28.1375,57.17 28.1375,58.42 Q28.1375,59.6544 28.7625,60.3731 Q29.4031,61.0762 30.5125,61.0762 Q31.1219,61.0762 31.6844,60.9044 Q32.2469,60.7169 32.825,60.3262 L32.825,61.9825 Z " fill="#000000"/><text fill="#AAAAAA" font-family="Verdana" font-size="11" lengthAdjust="spacing" textLength="26" x="44.3" y="62.2281">Main</text><line style="stroke:#1B1B1B;stroke-width:0.5;" x1="8" x2="84" y1="71.42" y2="71.42"/><ellipse cx="18" cy="82.8223" fill="none" rx="3" ry="3" style="stroke:#038048;stroke-width:1.0;"/><text fill="#AAAAAA" font-family="sans-serif" font-size="11" lengthAdjust="spacing" textLength="55" x="24" y="85.6304">void main</text><line style="stroke:#1B1B1B;stroke-width:0.5;" x1="8" x2="84" y1="92.2247" y2="92.2247"/></g><!--class CasaMatriz--><g id="elem_CasaMatriz"><rect codeLine="7" fill="#2E2E2E" height="131.6328" id="CasaMatriz" rx="2.5" ry="2.5" style="stroke:#1B1B1B;stroke-width:0.5;" width="386" x="120" y="7"/><ellipse cx="278.5" cy="20" fill="#ADD1B2" rx="8" ry="8" style="stroke:#181818;stroke-width:1.0;"/><path d="M280.625,23.5625 Q280.0469,23.8594 279.4219,24 Q278.8125,24.1563 278.1406,24.1563 Q276.1406,24.1563 274.9688,23.0469 Q273.7969,21.9219 273.7969,20 Q273.7969,18.0781 274.9688,16.9531 Q276.1406,15.8281 278.1406,15.8281 Q278.8125,15.8281 279.4219,15.9844 Q280.0469,16.1406 280.625,16.4375 L280.625,18.0938 Q280.0469,17.7031 279.4844,17.5156 Q278.9219,17.3281 278.3125,17.3281 Q277.2031,17.3281 276.5625,18.0469 Q275.9375,18.75 275.9375,20 Q275.9375,21.2344 276.5625,21.9531 Q277.2031,22.6563 278.3125,22.6563 Q278.9219,22.6563 279.4844,22.4844 Q280.0469,22.2969 280.625,21.9063 L280.625,23.5625 Z " fill="#000000"/><text fill="#AAAAAA" font-family="Verdana" font-size="11" lengthAdjust="spacing" textLength="62" x="294.5" y="23.8081">CasaMatriz</text><line style="stroke:#1B1B1B;stroke-width:0.5;" x1="121" x2="505" y1="33" y2="33"/><rect fill="none" height="6" style="stroke:#C82930;stroke-width:1.0;" width="6" x="128" y="41.4023"/><text fill="#AAAAAA" font-family="sans-serif" font-size="11" lengthAdjust="spacing" textLength="69" x="137" y="47.2104">Auto[] autos</text><rect fill="none" height="6" style="stroke:#C82930;stroke-width:1.0;" width="6" x="128" y="54.207"/><text fill="#AAAAAA" font-family="sans-serif" font-size="11" lengthAdjust="spacing" textLength="113" x="137" y="60.0151">Persona[] personas</text><rect fill="none" height="6" style="stroke:#C82930;stroke-width:1.0;" width="6" x="128" y="67.0117"/><text fill="#AAAAAA" font-family="sans-serif" font-size="11" lengthAdjust="spacing" textLength="95" x="137" y="72.8198">Oficina[] oficinas</text><line style="stroke:#1B1B1B;stroke-width:0.5;" x1="121" x2="505" y1="79.4141" y2="79.4141"/><ellipse cx="131" cy="90.8164" fill="#84BE84" rx="3" ry="3" style="stroke:#038048;stroke-width:1.0;"/><text fill="#AAAAAA" font-family="sans-serif" font-size="11" lengthAdjust="spacing" textLength="363" x="137" y="93.6245">CasaMatriz(Oficina[] oficinas, Persona[] personas, Auto[] autos)</text><ellipse cx="131" cy="103.6211" fill="#84BE84" rx="3" ry="3" style="stroke:#038048;stroke-width:1.0;"/><text fill="#AAAAAA" font-family="sans-serif" font-size="11" lengthAdjust="spacing" textLength="148" x="137" y="106.4292">void verListadoPersonas()</text><ellipse cx="131" cy="116.4258" fill="#84BE84" rx="3" ry="3" style="stroke:#038048;stroke-width:1.0;"/><text fill="#AAAAAA" font-family="sans-serif" font-size="11" lengthAdjust="spacing" textLength="97" x="137" y="119.2339">void cargarAuto()</text><ellipse cx="131" cy="129.2305" fill="#84BE84" rx="3" ry="3" style="stroke:#038048;stroke-width:1.0;"/><text fill="#AAAAAA" font-family="sans-serif" font-size="11" lengthAdjust="spacing" textLength="119" x="137" y="132.0386">void cargarPersona()</text></g><!--class Persona--><g id="elem_Persona"><rect codeLine="19" fill="#2E2E2E" height="131.6328" id="Persona" rx="2.5" ry="2.5" style="stroke:#1B1B1B;stroke-width:0.5;" width="586" x="541" y="7"/><ellipse cx="807" cy="20" fill="#ADD1B2" rx="8" ry="8" style="stroke:#181818;stroke-width:1.0;"/><path d="M809.125,23.5625 Q808.5469,23.8594 807.9219,24 Q807.3125,24.1563 806.6406,24.1563 Q804.6406,24.1563 803.4688,23.0469 Q802.2969,21.9219 802.2969,20 Q802.2969,18.0781 803.4688,16.9531 Q804.6406,15.8281 806.6406,15.8281 Q807.3125,15.8281 807.9219,15.9844 Q808.5469,16.1406 809.125,16.4375 L809.125,18.0938 Q808.5469,17.7031 807.9844,17.5156 Q807.4219,17.3281 806.8125,17.3281 Q805.7031,17.3281 805.0625,18.0469 Q804.4375,18.75 804.4375,20 Q804.4375,21.2344 805.0625,21.9531 Q805.7031,22.6563 806.8125,22.6563 Q807.4219,22.6563 807.9844,22.4844 Q808.5469,22.2969 809.125,21.9063 L809.125,23.5625 Z " fill="#000000"/><text fill="#AAAAAA" font-family="Verdana" font-size="11" lengthAdjust="spacing" textLength="47" x="823" y="23.8081">Persona</text><line style="stroke:#1B1B1B;stroke-width:0.5;" x1="542" x2="1126" y1="33" y2="33"/><rect fill="none" height="6" style="stroke:#C82930;stroke-width:1.0;" width="6" x="549" y="41.4023"/><text fill="#AAAAAA" font-family="sans-serif" font-size="11" lengthAdjust="spacing" textLength="28" x="558" y="47.2104">Int id</text><rect fill="none" height="6" style="stroke:#C82930;stroke-width:1.0;" width="6" x="549" y="54.207"/><text fill="#AAAAAA" font-family="sans-serif" font-size="11" lengthAdjust="spacing" textLength="82" x="558" y="60.0151">String nombre</text><rect fill="none" height="6" style="stroke:#C82930;stroke-width:1.0;" width="6" x="549" y="67.0117"/><text fill="#AAAAAA" font-family="sans-serif" font-size="11" lengthAdjust="spacing" textLength="124" x="558" y="72.8198">Date fechaNacimiento</text><rect fill="none" height="6" style="stroke:#C82930;stroke-width:1.0;" width="6" x="549" y="79.8164"/><text fill="#AAAAAA" font-family="sans-serif" font-size="11" lengthAdjust="spacing" textLength="81" x="558" y="85.6245">Int documento</text><rect fill="none" height="6" style="stroke:#C82930;stroke-width:1.0;" width="6" x="549" y="92.6211"/><text fill="#AAAAAA" font-family="sans-serif" font-size="11" lengthAdjust="spacing" textLength="84" x="558" y="98.4292">String tel&#233;fono</text><rect fill="none" height="6" style="stroke:#C82930;stroke-width:1.0;" width="6" x="549" y="105.4258"/><text fill="#AAAAAA" font-family="sans-serif" font-size="11" lengthAdjust="spacing" textLength="69" x="558" y="111.2339">String email</text><line style="stroke:#1B1B1B;stroke-width:0.5;" x1="542" x2="1126" y1="117.8281" y2="117.8281"/><ellipse cx="552" cy="129.2305" fill="#84BE84" rx="3" ry="3" style="stroke:#038048;stroke-width:1.0;"/><text fill="#AAAAAA" font-family="sans-serif" font-size="11" lengthAdjust="spacing" textLength="563" x="558" y="132.0386">Persona(int id, String nombre, Date fechaNacimiento, int documento, String tel&#233;fono, String email)</text></g><!--class Cliente--><g id="elem_Cliente"><rect codeLine="30" fill="#2E2E2E" height="80.4141" id="Cliente" rx="2.5" ry="2.5" style="stroke:#1B1B1B;stroke-width:0.5;" width="209" x="540.5" y="351.86"/><ellipse cx="622" cy="364.86" fill="#ADD1B2" rx="8" ry="8" style="stroke:#181818;stroke-width:1.0;"/><path d="M624.125,368.4225 Q623.5469,368.7194 622.9219,368.86 Q622.3125,369.0163 621.6406,369.0163 Q619.6406,369.0163 618.4688,367.9069 Q617.2969,366.7819 617.2969,364.86 Q617.2969,362.9381 618.4688,361.8131 Q619.6406,360.6881 621.6406,360.6881 Q622.3125,360.6881 622.9219,360.8444 Q623.5469,361.0006 624.125,361.2975 L624.125,362.9538 Q623.5469,362.5631 622.9844,362.3756 Q622.4219,362.1881 621.8125,362.1881 Q620.7031,362.1881 620.0625,362.9069 Q619.4375,363.61 619.4375,364.86 Q619.4375,366.0944 620.0625,366.8131 Q620.7031,367.5163 621.8125,367.5163 Q622.4219,367.5163 622.9844,367.3444 Q623.5469,367.1569 624.125,366.7663 L624.125,368.4225 Z " fill="#000000"/><text fill="#AAAAAA" font-family="Verdana" font-size="11" lengthAdjust="spacing" textLength="39" x="638" y="368.6681">Cliente</text><line style="stroke:#1B1B1B;stroke-width:0.5;" x1="541.5" x2="748.5" y1="377.86" y2="377.86"/><rect fill="none" height="6" style="stroke:#C82930;stroke-width:1.0;" width="6" x="548.5" y="386.2623"/><text fill="#AAAAAA" font-family="sans-serif" font-size="11" lengthAdjust="spacing" textLength="87" x="557.5" y="392.0704">Auto[] favoritos</text><line style="stroke:#1B1B1B;stroke-width:0.5;" x1="541.5" x2="748.5" y1="398.6647" y2="398.6647"/><ellipse cx="551.5" cy="410.067" fill="#84BE84" rx="3" ry="3" style="stroke:#038048;stroke-width:1.0;"/><text fill="#AAAAAA" font-family="sans-serif" font-size="11" lengthAdjust="spacing" textLength="186" x="557.5" y="412.8751">void agregarFavoritos(Auto auto)</text><ellipse cx="551.5" cy="422.8717" fill="#84BE84" rx="3" ry="3" style="stroke:#038048;stroke-width:1.0;"/><text fill="#AAAAAA" font-family="sans-serif" font-size="11" lengthAdjust="spacing" textLength="173" x="557.5" y="425.6798">void sacarFavoritos(Auto auto)</text></g><!--class Vendedor--><g id="elem_Vendedor"><rect codeLine="38" fill="#2E2E2E" height="54.8047" id="Vendedor" rx="2.5" ry="2.5" style="stroke:#1B1B1B;stroke-width:0.5;" width="132" x="768" y="217.84"/><ellipse cx="803.5" cy="230.84" fill="#ADD1B2" rx="8" ry="8" style="stroke:#181818;stroke-width:1.0;"/><path d="M805.625,234.4025 Q805.0469,234.6994 804.4219,234.84 Q803.8125,234.9963 803.1406,234.9963 Q801.1406,234.9963 799.9688,233.8869 Q798.7969,232.7619 798.7969,230.84 Q798.7969,228.9181 799.9688,227.7931 Q801.1406,226.6681 803.1406,226.6681 Q803.8125,226.6681 804.4219,226.8244 Q805.0469,226.9806 805.625,227.2775 L805.625,228.9338 Q805.0469,228.5431 804.4844,228.3556 Q803.9219,228.1681 803.3125,228.1681 Q802.2031,228.1681 801.5625,228.8869 Q800.9375,229.59 800.9375,230.84 Q800.9375,232.0744 801.5625,232.7931 Q802.2031,233.4963 803.3125,233.4963 Q803.9219,233.4963 804.4844,233.3244 Q805.0469,233.1369 805.625,232.7463 L805.625,234.4025 Z " fill="#000000"/><text fill="#AAAAAA" font-family="Verdana" font-size="11" lengthAdjust="spacing" textLength="54" x="819.5" y="234.6481">Vendedor</text><line style="stroke:#1B1B1B;stroke-width:0.5;" x1="769" x2="899" y1="243.84" y2="243.84"/><line style="stroke:#1B1B1B;stroke-width:0.5;" x1="769" x2="899" y1="251.84" y2="251.84"/><ellipse cx="779" cy="263.2423" fill="#84BE84" rx="3" ry="3" style="stroke:#038048;stroke-width:1.0;"/><text fill="#AAAAAA" font-family="sans-serif" font-size="11" lengthAdjust="spacing" textLength="109" x="785" y="266.0504">void entregarAuto()</text></g><!--class Admin--><g id="elem_Admin"><rect codeLine="42" fill="#2E2E2E" height="93.2188" id="Admin" rx="2.5" ry="2.5" style="stroke:#1B1B1B;stroke-width:0.5;" width="148" x="935" y="198.64"/><ellipse cx="988" cy="211.64" fill="#ADD1B2" rx="8" ry="8" style="stroke:#181818;stroke-width:1.0;"/><path d="M990.125,215.2025 Q989.5469,215.4994 988.9219,215.64 Q988.3125,215.7963 987.6406,215.7963 Q985.6406,215.7963 984.4688,214.6869 Q983.2969,213.5619 983.2969,211.64 Q983.2969,209.7181 984.4688,208.5931 Q985.6406,207.4681 987.6406,207.4681 Q988.3125,207.4681 988.9219,207.6244 Q989.5469,207.7806 990.125,208.0775 L990.125,209.7338 Q989.5469,209.3431 988.9844,209.1556 Q988.4219,208.9681 987.8125,208.9681 Q986.7031,208.9681 986.0625,209.6869 Q985.4375,210.39 985.4375,211.64 Q985.4375,212.8744 986.0625,213.5931 Q986.7031,214.2963 987.8125,214.2963 Q988.4219,214.2963 988.9844,214.1244 Q989.5469,213.9369 990.125,213.5463 L990.125,215.2025 Z " fill="#000000"/><text fill="#AAAAAA" font-family="Verdana" font-size="11" lengthAdjust="spacing" textLength="35" x="1004" y="215.4481">Admin</text><line style="stroke:#1B1B1B;stroke-width:0.5;" x1="936" x2="1082" y1="224.64" y2="224.64"/><line style="stroke:#1B1B1B;stroke-width:0.5;" x1="936" x2="1082" y1="232.64" y2="232.64"/><ellipse cx="946" cy="244.0423" fill="#84BE84" rx="3" ry="3" style="stroke:#038048;stroke-width:1.0;"/><text fill="#AAAAAA" font-family="sans-serif" font-size="11" lengthAdjust="spacing" textLength="97" x="952" y="246.8504">void crearAutos()</text><ellipse cx="946" cy="256.847" fill="#84BE84" rx="3" ry="3" style="stroke:#038048;stroke-width:1.0;"/><text fill="#AAAAAA" font-family="sans-serif" font-size="11" lengthAdjust="spacing" textLength="113" x="952" y="259.6551">void eliminarAutos()</text><ellipse cx="946" cy="269.6517" fill="#84BE84" rx="3" ry="3" style="stroke:#038048;stroke-width:1.0;"/><text fill="#AAAAAA" font-family="sans-serif" font-size="11" lengthAdjust="spacing" textLength="125" x="952" y="272.4598">void eliminarUsuario()</text><ellipse cx="946" cy="282.4564" fill="#84BE84" rx="3" ry="3" style="stroke:#038048;stroke-width:1.0;"/><text fill="#AAAAAA" font-family="sans-serif" font-size="11" lengthAdjust="spacing" textLength="119" x="952" y="285.2645">void crearVendedor()</text></g><!--class Auto--><g id="elem_Auto"><rect codeLine="49" fill="#2E2E2E" height="285.2891" id="Auto" rx="2.5" ry="2.5" style="stroke:#1B1B1B;stroke-width:0.5;" width="316" x="608" y="760.73"/><ellipse cx="750" cy="773.73" fill="#ADD1B2" rx="8" ry="8" style="stroke:#181818;stroke-width:1.0;"/><path d="M752.125,777.2925 Q751.5469,777.5894 750.9219,777.73 Q750.3125,777.8863 749.6406,777.8863 Q747.6406,777.8863 746.4688,776.7769 Q745.2969,775.6519 745.2969,773.73 Q745.2969,771.8081 746.4688,770.6831 Q747.6406,769.5581 749.6406,769.5581 Q750.3125,769.5581 750.9219,769.7144 Q751.5469,769.8706 752.125,770.1675 L752.125,771.8238 Q751.5469,771.4331 750.9844,771.2456 Q750.4219,771.0581 749.8125,771.0581 Q748.7031,771.0581 748.0625,771.7769 Q747.4375,772.48 747.4375,773.73 Q747.4375,774.9644 748.0625,775.6831 Q748.7031,776.3863 749.8125,776.3863 Q750.4219,776.3863 750.9844,776.2144 Q751.5469,776.0269 752.125,775.6363 L752.125,777.2925 Z " fill="#000000"/><text fill="#AAAAAA" font-family="Verdana" font-size="11" lengthAdjust="spacing" textLength="25" x="766" y="777.5381">Auto</text><line style="stroke:#1B1B1B;stroke-width:0.5;" x1="609" x2="923" y1="786.73" y2="786.73"/><rect fill="none" height="6" style="stroke:#C82930;stroke-width:1.0;" width="6" x="616" y="795.1323"/><text fill="#AAAAAA" font-family="sans-serif" font-size="11" lengthAdjust="spacing" textLength="120" x="625" y="800.9404">Consultas[] reservas</text><rect fill="none" height="6" style="stroke:#C82930;stroke-width:1.0;" width="6" x="616" y="807.937"/><text fill="#AAAAAA" font-family="sans-serif" font-size="11" lengthAdjust="spacing" textLength="81" x="625" y="813.7451">String patente</text><rect fill="none" height="6" style="stroke:#C82930;stroke-width:1.0;" width="6" x="616" y="820.7417"/><text fill="#AAAAAA" font-family="sans-serif" font-size="11" lengthAdjust="spacing" textLength="80" x="625" y="826.5498">String modelo</text><rect fill="none" height="6" style="stroke:#C82930;stroke-width:1.0;" width="6" x="616" y="833.5464"/><text fill="#AAAAAA" font-family="sans-serif" font-size="11" lengthAdjust="spacing" textLength="66" x="625" y="839.3545">String color</text><rect fill="none" height="6" style="stroke:#C82930;stroke-width:1.0;" width="6" x="616" y="846.3511"/><text fill="#AAAAAA" font-family="sans-serif" font-size="11" lengthAdjust="spacing" textLength="74" x="625" y="852.1592">String marca</text><rect fill="none" height="6" style="stroke:#C82930;stroke-width:1.0;" width="6" x="616" y="859.1558"/><text fill="#AAAAAA" font-family="sans-serif" font-size="11" lengthAdjust="spacing" textLength="107" x="625" y="864.9639">Bool disponibilidad</text><rect fill="none" height="6" style="stroke:#C82930;stroke-width:1.0;" width="6" x="616" y="871.9605"/><text fill="#AAAAAA" font-family="sans-serif" font-size="11" lengthAdjust="spacing" textLength="87" x="625" y="877.7686">Float precio-dia</text><rect fill="none" height="6" style="stroke:#C82930;stroke-width:1.0;" width="6" x="616" y="884.7652"/><text fill="#AAAAAA" font-family="sans-serif" font-size="11" lengthAdjust="spacing" textLength="129" x="625" y="890.5733">Float cantidadGasolina</text><rect fill="none" height="6" style="stroke:#C82930;stroke-width:1.0;" width="6" x="616" y="897.5698"/><text fill="#AAAAAA" font-family="sans-serif" font-size="11" lengthAdjust="spacing" textLength="109" x="625" y="903.3779">String oficinaActual</text><line style="stroke:#1B1B1B;stroke-width:0.5;" x1="609" x2="923" y1="909.9722" y2="909.9722"/><ellipse cx="619" cy="921.3745" fill="#84BE84" rx="3" ry="3" style="stroke:#038048;stroke-width:1.0;"/><text fill="#AAAAAA" font-family="sans-serif" font-size="11" lengthAdjust="spacing" textLength="33" x="625" y="924.1826">Auto()</text><ellipse cx="619" cy="934.1792" fill="#84BE84" rx="3" ry="3" style="stroke:#038048;stroke-width:1.0;"/><text fill="#AAAAAA" font-family="sans-serif" font-size="11" lengthAdjust="spacing" textLength="293" x="625" y="936.9873">Bool validarDisponibilidad(Date fechaI, Date fechaF)</text><ellipse cx="619" cy="946.9839" fill="#84BE84" rx="3" ry="3" style="stroke:#038048;stroke-width:1.0;"/><text fill="#AAAAAA" font-family="sans-serif" font-size="11" lengthAdjust="spacing" textLength="213" x="625" y="949.792">Float calcularPrecioTotal(Int cantDias)</text><ellipse cx="619" cy="959.7886" fill="#84BE84" rx="3" ry="3" style="stroke:#038048;stroke-width:1.0;"/><text fill="#AAAAAA" font-family="sans-serif" font-size="11" lengthAdjust="spacing" textLength="212" x="625" y="962.5967">Auto[] verListadoAutos(Autos[] autos)</text><ellipse cx="619" cy="972.5933" fill="#84BE84" rx="3" ry="3" style="stroke:#038048;stroke-width:1.0;"/><text fill="#AAAAAA" font-family="sans-serif" font-size="11" lengthAdjust="spacing" textLength="109" x="625" y="975.4014">void entregarAuto()</text><rect fill="#F24D5C" height="6" style="stroke:#C82930;stroke-width:1.0;" width="6" x="616" y="982.398"/><text fill="#AAAAAA" font-family="sans-serif" font-size="11" lengthAdjust="spacing" textLength="138" x="625" y="988.2061">void consultarGasolina()</text><rect fill="#F24D5C" height="6" style="stroke:#C82930;stroke-width:1.0;" width="6" x="616" y="995.2027"/><text fill="#AAAAAA" font-family="sans-serif" font-size="11" lengthAdjust="spacing" textLength="134" x="625" y="1001.0108">void recargarGasolina()</text><rect fill="#F24D5C" height="6" style="stroke:#C82930;stroke-width:1.0;" width="6" x="616" y="1008.0073"/><text fill="#AAAAAA" font-family="sans-serif" font-size="11" lengthAdjust="spacing" textLength="138" x="625" y="1013.8154">void consumirGasolina()</text><rect fill="#F24D5C" height="6" style="stroke:#C82930;stroke-width:1.0;" width="6" x="616" y="1020.812"/><text fill="#AAAAAA" font-family="sans-serif" font-size="11" lengthAdjust="spacing" textLength="137" x="625" y="1026.6201">void consumoGasolina()</text><rect fill="#F24D5C" height="6" style="stroke:#C82930;stroke-width:1.0;" width="6" x="616" y="1033.6167"/><text fill="#AAAAAA" font-family="sans-serif" font-size="11" lengthAdjust="spacing" textLength="183" x="625" y="1039.4248">void transportarOficinaOriginal()</text></g><!--class Consulta--><g id="elem_Consulta"><rect codeLine="72" fill="#2E2E2E" height="208.4609" id="Consulta" rx="2.5" ry="2.5" style="stroke:#1B1B1B;stroke-width:0.5;" width="378" x="456" y="492.27"/><ellipse cx="616.5" cy="505.27" fill="#ADD1B2" rx="8" ry="8" style="stroke:#181818;stroke-width:1.0;"/><path d="M618.625,508.8325 Q618.0469,509.1294 617.4219,509.27 Q616.8125,509.4263 616.1406,509.4263 Q614.1406,509.4263 612.9688,508.3169 Q611.7969,507.1919 611.7969,505.27 Q611.7969,503.3481 612.9688,502.2231 Q614.1406,501.0981 616.1406,501.0981 Q616.8125,501.0981 617.4219,501.2544 Q618.0469,501.4106 618.625,501.7075 L618.625,503.3638 Q618.0469,502.9731 617.4844,502.7856 Q616.9219,502.5981 616.3125,502.5981 Q615.2031,502.5981 614.5625,503.3169 Q613.9375,504.02 613.9375,505.27 Q613.9375,506.5044 614.5625,507.2231 Q615.2031,507.9263 616.3125,507.9263 Q616.9219,507.9263 617.4844,507.7544 Q618.0469,507.5669 618.625,507.1763 L618.625,508.8325 Z " fill="#000000"/><text fill="#AAAAAA" font-family="Verdana" font-size="11" lengthAdjust="spacing" textLength="50" x="632.5" y="509.0781">Consulta</text><line style="stroke:#1B1B1B;stroke-width:0.5;" x1="457" x2="833" y1="518.27" y2="518.27"/><rect fill="none" height="6" style="stroke:#C82930;stroke-width:1.0;" width="6" x="464" y="526.6723"/><text fill="#AAAAAA" font-family="sans-serif" font-size="11" lengthAdjust="spacing" textLength="80" x="473" y="532.4804">Cliente cliente</text><rect fill="none" height="6" style="stroke:#C82930;stroke-width:1.0;" width="6" x="464" y="539.477"/><text fill="#AAAAAA" font-family="sans-serif" font-size="11" lengthAdjust="spacing" textLength="111" x="473" y="545.2851">Vendedor vendedor</text><rect fill="none" height="6" style="stroke:#C82930;stroke-width:1.0;" width="6" x="464" y="552.2817"/><text fill="#AAAAAA" font-family="sans-serif" font-size="11" lengthAdjust="spacing" textLength="80" x="473" y="558.0898">Oficina oficina</text><rect fill="none" height="6" style="stroke:#C82930;stroke-width:1.0;" width="6" x="464" y="565.0864"/><text fill="#AAAAAA" font-family="sans-serif" font-size="11" lengthAdjust="spacing" textLength="105" x="473" y="570.8945">Date inicioReserva</text><rect fill="none" height="6" style="stroke:#C82930;stroke-width:1.0;" width="6" x="464" y="577.8911"/><text fill="#AAAAAA" font-family="sans-serif" font-size="11" lengthAdjust="spacing" textLength="90" x="473" y="583.6992">Date finReserva</text><rect fill="none" height="6" style="stroke:#C82930;stroke-width:1.0;" width="6" x="464" y="590.6958"/><text fill="#AAAAAA" font-family="sans-serif" font-size="11" lengthAdjust="spacing" textLength="91" x="473" y="596.5039">Int cantidadDias</text><rect fill="none" height="6" style="stroke:#C82930;stroke-width:1.0;" width="6" x="464" y="603.5005"/><text fill="#AAAAAA" font-family="sans-serif" font-size="11" lengthAdjust="spacing" textLength="92" x="473" y="609.3086">Float precioFinal</text><rect fill="none" height="6" style="stroke:#C82930;stroke-width:1.0;" width="6" x="464" y="616.3052"/><text fill="#AAAAAA" font-family="sans-serif" font-size="11" lengthAdjust="spacing" textLength="86" x="473" y="622.1133">Bool cancelado</text><rect fill="none" height="6" style="stroke:#C82930;stroke-width:1.0;" width="6" x="464" y="629.1098"/><text fill="#AAAAAA" font-family="sans-serif" font-size="11" lengthAdjust="spacing" textLength="87" x="473" y="634.9179">Bool reservado</text><line style="stroke:#1B1B1B;stroke-width:0.5;" x1="457" x2="833" y1="641.5122" y2="641.5122"/><ellipse cx="467" cy="652.9145" fill="#84BE84" rx="3" ry="3" style="stroke:#038048;stroke-width:1.0;"/><text fill="#AAAAAA" font-family="sans-serif" font-size="11" lengthAdjust="spacing" textLength="196" x="473" y="655.7226">void mostrarConsultas(Persona p)</text><ellipse cx="467" cy="665.7192" fill="#84BE84" rx="3" ry="3" style="stroke:#038048;stroke-width:1.0;"/><text fill="#AAAAAA" font-family="sans-serif" font-size="11" lengthAdjust="spacing" textLength="355" x="473" y="668.5273">void crearConsulta(Cliente c, Auto a, Date fechaI, Date fechaF)</text><ellipse cx="467" cy="678.5239" fill="#84BE84" rx="3" ry="3" style="stroke:#038048;stroke-width:1.0;"/><text fill="#AAAAAA" font-family="sans-serif" font-size="11" lengthAdjust="spacing" textLength="236" x="473" y="681.332">void rechazarConsulta(Consulta consulta)</text><ellipse cx="467" cy="691.3286" fill="#84BE84" rx="3" ry="3" style="stroke:#038048;stroke-width:1.0;"/><text fill="#AAAAAA" font-family="sans-serif" font-size="11" lengthAdjust="spacing" textLength="230" x="473" y="694.1367">void aceptarConsulta(Consulta consulta)</text></g><!--class Oficina--><g id="elem_Oficina"><rect codeLine="89" fill="#2E2E2E" height="80.4141" id="Oficina" rx="2.5" ry="2.5" style="stroke:#1B1B1B;stroke-width:0.5;" width="147" x="784.5" y="351.86"/><ellipse cx="835" cy="364.86" fill="#ADD1B2" rx="8" ry="8" style="stroke:#181818;stroke-width:1.0;"/><path d="M837.125,368.4225 Q836.5469,368.7194 835.9219,368.86 Q835.3125,369.0163 834.6406,369.0163 Q832.6406,369.0163 831.4688,367.9069 Q830.2969,366.7819 830.2969,364.86 Q830.2969,362.9381 831.4688,361.8131 Q832.6406,360.6881 834.6406,360.6881 Q835.3125,360.6881 835.9219,360.8444 Q836.5469,361.0006 837.125,361.2975 L837.125,362.9538 Q836.5469,362.5631 835.9844,362.3756 Q835.4219,362.1881 834.8125,362.1881 Q833.7031,362.1881 833.0625,362.9069 Q832.4375,363.61 832.4375,364.86 Q832.4375,366.0944 833.0625,366.8131 Q833.7031,367.5163 834.8125,367.5163 Q835.4219,367.5163 835.9844,367.3444 Q836.5469,367.1569 837.125,366.7663 L837.125,368.4225 Z " fill="#000000"/><text fill="#AAAAAA" font-family="Verdana" font-size="11" lengthAdjust="spacing" textLength="39" x="851" y="368.6681">Oficina</text><line style="stroke:#1B1B1B;stroke-width:0.5;" x1="785.5" x2="930.5" y1="377.86" y2="377.86"/><rect fill="none" height="6" style="stroke:#C82930;stroke-width:1.0;" width="6" x="792.5" y="386.2623"/><text fill="#AAAAAA" font-family="sans-serif" font-size="11" lengthAdjust="spacing" textLength="124" x="801.5" y="392.0704">Consultas[] consultas</text><rect fill="none" height="6" style="stroke:#C82930;stroke-width:1.0;" width="6" x="792.5" y="399.067"/><text fill="#AAAAAA" font-family="sans-serif" font-size="11" lengthAdjust="spacing" textLength="89" x="801.5" y="404.8751">String direcci&#243;n</text><rect fill="none" height="6" style="stroke:#C82930;stroke-width:1.0;" width="6" x="792.5" y="411.8717"/><text fill="#AAAAAA" font-family="sans-serif" font-size="11" lengthAdjust="spacing" textLength="84" x="801.5" y="417.6798">String tel&#233;fono</text><line style="stroke:#1B1B1B;stroke-width:0.5;" x1="785.5" x2="930.5" y1="424.2741" y2="424.2741"/></g><!--link Persona to Vendedor--><g id="link_Persona_Vendedor"><path codeLine="96" d="M834,138.74 C834,166.21 834,196.66 834,217.76 " fill="none" id="Persona-Vendedor" style="stroke:#FFFFFF;stroke-width:1.0;"/></g><!--link Persona to Cliente--><g id="link_Persona_Cliente"><path codeLine="97" d="M789.24,138.91 C776.55,157.95 762.94,178.95 751,198.64 C719.55,250.49 686.28,312.16 665.58,351.45 " fill="none" id="Persona-Cliente" style="stroke:#FFFFFF;stroke-width:1.0;"/></g><!--link Persona to Admin--><g id="link_Persona_Admin"><path codeLine="98" d="M900.66,138.74 C921.04,158.59 943.02,179.99 961.83,198.3 " fill="none" id="Persona-Admin" style="stroke:#FFFFFF;stroke-width:1.0;"/></g><!--link Cliente to Consulta--><g id="link_Cliente_Consulta"><path codeLine="99" d="M645,432.58 C645,449.72 645,470.68 645,491.79 " fill="none" id="Cliente-Consulta" style="stroke:#FFFFFF;stroke-width:1.0;"/></g><!--link Oficina to Consulta--><g id="link_Oficina_Consulta"><path codeLine="100" d="M816.43,432.58 C798.39,449.72 776.33,470.68 754.12,491.79 " fill="none" id="Oficina-Consulta" style="stroke:#FFFFFF;stroke-width:1.0;"/></g><!--link Oficina to Auto--><g id="link_Oficina_Auto"><path codeLine="101" d="M861.98,432.47 C866.88,491.53 872.28,606.18 852,700.73 C847.77,720.45 841.6,740.65 834.49,760.29 " fill="none" id="Oficina-Auto" style="stroke:#FFFFFF;stroke-width:1.0;"/></g><!--link Vendedor to Oficina--><g id="link_Vendedor_Oficina"><path codeLine="102" d="M838.46,273.15 C842.1,295.15 847.31,326.58 851.44,351.46 " fill="none" id="Vendedor-Oficina" style="stroke:#FFFFFF;stroke-width:1.0;"/></g><!--link Consulta to Auto--><g id="link_Consulta_Auto"><path codeLine="103" d="M686.13,701.14 C693.7,720.22 701.73,740.43 709.65,760.41 " fill="none" id="Consulta-Auto" style="stroke:#FFFFFF;stroke-width:1.0;"/></g><!--SRC=[VLH9Rbin3Dt_KwYx7zG-H9h0HO2aAJfjYYuOINQ8wek697kHeWVgkaV8nKgDNvww-SCJnU7naM_2ivwqS5effxrVAd0_oO7Tw66G1hmN3u3sro34spsX4XF_3R_hsGruU83Wy4L4a-NrBj3t7mBuvUF_H-qyMM1ecxyI-hX6YGcb_EM7w7zsDfvQBCIfhuNeursr7FVQtQCFeAZSyUDyAC5jmCMB9s2nPfmBB1KMB5LtPuD05Ry-SvPs8onDJqv7u1Q25cijd-43I9nGsq3rYYAvcofGRWPjNl-ioVQOPcvDOg8cWYdWGXo4MuXpmHO2-r3jJWlKa1JcgkkXYGvqtxyrxCbXxc7Z23PECqchUZP6uqJzpAC7US5YPlIRjaehShEcE7noNPhIChjMKoyzwNIswTkf3HDWB-DV_GuS7lGwkgb978HZ5uc56x9-Pm9ufeA7GhjzrcqXSClqCs4TCf7Ifc-b94EkDm0d8Vw_8p92eT-InISqg23fQMK8WjWwBP6M2c769DWGhTw39yC5TKxBQ5pBi8EicqnWxbcAj8SOmjqU11nd_TprObebZcfO8tU6HoAbz8K2c35gEQPpYv27hQXb7hVSXFGydSgZBdCTkHs5R5ShxCuuU1hCCqVfseINZ-ZCIU35namuZbOspAF33RzChuFQ_hpIodW8cTyHgkBXolD7jzHgLzfIGCl_z2dBQ5uLQ3keCXkx4zazbiGgfjZamvPI6wQx8KMa2PatDNckrpKnZsMhYEtHB5IBiPMQ5wk0NXrdf59xz0mllPTAN-tiR0jIRyF_JLiNAfyd4rbj-v5Ko6b8VFrhp-xOk7ngzSjbsq0zLchleRH-XafAj2cHXvhR1IoIDpIHC53EXbPlCVe7]--></g></svg>