<svg xmlns="http://www.w3.org/2000/svg" xmlns:xlink="http://www.w3.org/1999/xlink" contentStyleType="text/css" height="924px" preserveAspectRatio="none" style="width:641px;height:924px;background:#777777;" version="1.1" viewBox="0 0 641 924" width="641px" zoomAndPan="magnify"><defs/><g><rect fill="#777777" height="924" style="stroke:none;stroke-width:1.0;" width="641" x="0" y="0"/><!--class CasaMatriz--><g id="elem_CasaMatriz"><rect codeLine="3" fill="#2E2E2E" height="106.0234" id="CasaMatriz" rx="2.5" ry="2.5" style="stroke:#1B1B1B;stroke-width:0.5;" width="171" x="105.5" y="7"/><ellipse cx="156.5" cy="20" fill="#ADD1B2" rx="8" ry="8" style="stroke:#181818;stroke-width:1.0;"/><path d="M158.625,23.5625 Q158.0469,23.8594 157.4219,24 Q156.8125,24.1563 156.1406,24.1563 Q154.1406,24.1563 152.9688,23.0469 Q151.7969,21.9219 151.7969,20 Q151.7969,18.0781 152.9688,16.9531 Q154.1406,15.8281 156.1406,15.8281 Q156.8125,15.8281 157.4219,15.9844 Q158.0469,16.1406 158.625,16.4375 L158.625,18.0938 Q158.0469,17.7031 157.4844,17.5156 Q156.9219,17.3281 156.3125,17.3281 Q155.2031,17.3281 154.5625,18.0469 Q153.9375,18.75 153.9375,20 Q153.9375,21.2344 154.5625,21.9531 Q155.2031,22.6563 156.3125,22.6563 Q156.9219,22.6563 157.4844,22.4844 Q158.0469,22.2969 158.625,21.9063 L158.625,23.5625 Z " fill="#000000"/><text fill="#AAAAAA" font-family="Verdana" font-size="11" lengthAdjust="spacing" textLength="62" x="172.5" y="23.8081">CasaMatriz</text><line style="stroke:#1B1B1B;stroke-width:0.5;" x1="106.5" x2="275.5" y1="33" y2="33"/><rect fill="none" height="6" style="stroke:#C82930;stroke-width:1.0;" width="6" x="113.5" y="41.4023"/><text fill="#AAAAAA" font-family="sans-serif" font-size="11" lengthAdjust="spacing" textLength="69" x="122.5" y="47.2104">Auto[] autos</text><rect fill="none" height="6" style="stroke:#C82930;stroke-width:1.0;" width="6" x="113.5" y="54.207"/><text fill="#AAAAAA" font-family="sans-serif" font-size="11" lengthAdjust="spacing" textLength="113" x="122.5" y="60.0151">Persona[] personas</text><line style="stroke:#1B1B1B;stroke-width:0.5;" x1="106.5" x2="275.5" y1="66.6094" y2="66.6094"/><ellipse cx="116.5" cy="78.0117" fill="#84BE84" rx="3" ry="3" style="stroke:#038048;stroke-width:1.0;"/><text fill="#AAAAAA" font-family="sans-serif" font-size="11" lengthAdjust="spacing" textLength="148" x="122.5" y="80.8198">void verListadoPersonas()</text><ellipse cx="116.5" cy="90.8164" fill="#84BE84" rx="3" ry="3" style="stroke:#038048;stroke-width:1.0;"/><text fill="#AAAAAA" font-family="sans-serif" font-size="11" lengthAdjust="spacing" textLength="97" x="122.5" y="93.6245">void cargarAuto()</text><ellipse cx="116.5" cy="103.6211" fill="#84BE84" rx="3" ry="3" style="stroke:#038048;stroke-width:1.0;"/><text fill="#AAAAAA" font-family="sans-serif" font-size="11" lengthAdjust="spacing" textLength="119" x="122.5" y="106.4292">void cargarPersona()</text></g><!--class Persona--><g id="elem_Persona"><rect codeLine="14" fill="#2E2E2E" height="106.0234" id="Persona" rx="2.5" ry="2.5" style="stroke:#1B1B1B;stroke-width:0.5;" width="147" x="311.5" y="7"/><ellipse cx="358" cy="20" fill="#ADD1B2" rx="8" ry="8" style="stroke:#181818;stroke-width:1.0;"/><path d="M360.125,23.5625 Q359.5469,23.8594 358.9219,24 Q358.3125,24.1563 357.6406,24.1563 Q355.6406,24.1563 354.4688,23.0469 Q353.2969,21.9219 353.2969,20 Q353.2969,18.0781 354.4688,16.9531 Q355.6406,15.8281 357.6406,15.8281 Q358.3125,15.8281 358.9219,15.9844 Q359.5469,16.1406 360.125,16.4375 L360.125,18.0938 Q359.5469,17.7031 358.9844,17.5156 Q358.4219,17.3281 357.8125,17.3281 Q356.7031,17.3281 356.0625,18.0469 Q355.4375,18.75 355.4375,20 Q355.4375,21.2344 356.0625,21.9531 Q356.7031,22.6563 357.8125,22.6563 Q358.4219,22.6563 358.9844,22.4844 Q359.5469,22.2969 360.125,21.9063 L360.125,23.5625 Z " fill="#000000"/><text fill="#AAAAAA" font-family="Verdana" font-size="11" lengthAdjust="spacing" textLength="47" x="374" y="23.8081">Persona</text><line style="stroke:#1B1B1B;stroke-width:0.5;" x1="312.5" x2="457.5" y1="33" y2="33"/><rect fill="none" height="6" style="stroke:#C82930;stroke-width:1.0;" width="6" x="319.5" y="41.4023"/><text fill="#AAAAAA" font-family="sans-serif" font-size="11" lengthAdjust="spacing" textLength="28" x="328.5" y="47.2104">Int id</text><rect fill="none" height="6" style="stroke:#C82930;stroke-width:1.0;" width="6" x="319.5" y="54.207"/><text fill="#AAAAAA" font-family="sans-serif" font-size="11" lengthAdjust="spacing" textLength="82" x="328.5" y="60.0151">String nombre</text><rect fill="none" height="6" style="stroke:#C82930;stroke-width:1.0;" width="6" x="319.5" y="67.0117"/><text fill="#AAAAAA" font-family="sans-serif" font-size="11" lengthAdjust="spacing" textLength="124" x="328.5" y="72.8198">Date fechaNacimiento</text><rect fill="none" height="6" style="stroke:#C82930;stroke-width:1.0;" width="6" x="319.5" y="79.8164"/><text fill="#AAAAAA" font-family="sans-serif" font-size="11" lengthAdjust="spacing" textLength="81" x="328.5" y="85.6245">Int documento</text><rect fill="none" height="6" style="stroke:#C82930;stroke-width:1.0;" width="6" x="319.5" y="92.6211"/><text fill="#AAAAAA" font-family="sans-serif" font-size="11" lengthAdjust="spacing" textLength="84" x="328.5" y="98.4292">String tel&#233;fono</text><line style="stroke:#1B1B1B;stroke-width:0.5;" x1="312.5" x2="457.5" y1="105.0234" y2="105.0234"/></g><!--class Cliente--><g id="elem_Cliente"><rect codeLine="22" fill="#2E2E2E" height="80.4141" id="Cliente" rx="2.5" ry="2.5" style="stroke:#1B1B1B;stroke-width:0.5;" width="209" x="91.5" y="326.24"/><ellipse cx="173" cy="339.24" fill="#ADD1B2" rx="8" ry="8" style="stroke:#181818;stroke-width:1.0;"/><path d="M175.125,342.8025 Q174.5469,343.0994 173.9219,343.24 Q173.3125,343.3963 172.6406,343.3963 Q170.6406,343.3963 169.4688,342.2869 Q168.2969,341.1619 168.2969,339.24 Q168.2969,337.3181 169.4688,336.1931 Q170.6406,335.0681 172.6406,335.0681 Q173.3125,335.0681 173.9219,335.2244 Q174.5469,335.3806 175.125,335.6775 L175.125,337.3338 Q174.5469,336.9431 173.9844,336.7556 Q173.4219,336.5681 172.8125,336.5681 Q171.7031,336.5681 171.0625,337.2869 Q170.4375,337.99 170.4375,339.24 Q170.4375,340.4744 171.0625,341.1931 Q171.7031,341.8963 172.8125,341.8963 Q173.4219,341.8963 173.9844,341.7244 Q174.5469,341.5369 175.125,341.1463 L175.125,342.8025 Z " fill="#000000"/><text fill="#AAAAAA" font-family="Verdana" font-size="11" lengthAdjust="spacing" textLength="39" x="189" y="343.0481">Cliente</text><line style="stroke:#1B1B1B;stroke-width:0.5;" x1="92.5" x2="299.5" y1="352.24" y2="352.24"/><rect fill="none" height="6" style="stroke:#C82930;stroke-width:1.0;" width="6" x="99.5" y="360.6423"/><text fill="#AAAAAA" font-family="sans-serif" font-size="11" lengthAdjust="spacing" textLength="87" x="108.5" y="366.4504">Auto[] favoritos</text><line style="stroke:#1B1B1B;stroke-width:0.5;" x1="92.5" x2="299.5" y1="373.0447" y2="373.0447"/><ellipse cx="102.5" cy="384.447" fill="#84BE84" rx="3" ry="3" style="stroke:#038048;stroke-width:1.0;"/><text fill="#AAAAAA" font-family="sans-serif" font-size="11" lengthAdjust="spacing" textLength="186" x="108.5" y="387.2551">void agregarFavoritos(Auto auto)</text><ellipse cx="102.5" cy="397.2517" fill="#84BE84" rx="3" ry="3" style="stroke:#038048;stroke-width:1.0;"/><text fill="#AAAAAA" font-family="sans-serif" font-size="11" lengthAdjust="spacing" textLength="173" x="108.5" y="400.0598">void sacarFavoritos(Auto auto)</text></g><!--class Vendedor--><g id="elem_Vendedor"><rect codeLine="30" fill="#2E2E2E" height="54.8047" id="Vendedor" rx="2.5" ry="2.5" style="stroke:#1B1B1B;stroke-width:0.5;" width="132" x="319" y="192.23"/><ellipse cx="354.5" cy="205.23" fill="#ADD1B2" rx="8" ry="8" style="stroke:#181818;stroke-width:1.0;"/><path d="M356.625,208.7925 Q356.0469,209.0894 355.4219,209.23 Q354.8125,209.3863 354.1406,209.3863 Q352.1406,209.3863 350.9688,208.2769 Q349.7969,207.1519 349.7969,205.23 Q349.7969,203.3081 350.9688,202.1831 Q352.1406,201.0581 354.1406,201.0581 Q354.8125,201.0581 355.4219,201.2144 Q356.0469,201.3706 356.625,201.6675 L356.625,203.3238 Q356.0469,202.9331 355.4844,202.7456 Q354.9219,202.5581 354.3125,202.5581 Q353.2031,202.5581 352.5625,203.2769 Q351.9375,203.98 351.9375,205.23 Q351.9375,206.4644 352.5625,207.1831 Q353.2031,207.8863 354.3125,207.8863 Q354.9219,207.8863 355.4844,207.7144 Q356.0469,207.5269 356.625,207.1363 L356.625,208.7925 Z " fill="#000000"/><text fill="#AAAAAA" font-family="Verdana" font-size="11" lengthAdjust="spacing" textLength="54" x="370.5" y="209.0381">Vendedor</text><line style="stroke:#1B1B1B;stroke-width:0.5;" x1="320" x2="450" y1="218.23" y2="218.23"/><line style="stroke:#1B1B1B;stroke-width:0.5;" x1="320" x2="450" y1="226.23" y2="226.23"/><ellipse cx="330" cy="237.6323" fill="#84BE84" rx="3" ry="3" style="stroke:#038048;stroke-width:1.0;"/><text fill="#AAAAAA" font-family="sans-serif" font-size="11" lengthAdjust="spacing" textLength="109" x="336" y="240.4404">void entregarAuto()</text></g><!--class Admin--><g id="elem_Admin"><rect codeLine="34" fill="#2E2E2E" height="93.2188" id="Admin" rx="2.5" ry="2.5" style="stroke:#1B1B1B;stroke-width:0.5;" width="148" x="486" y="173.02"/><ellipse cx="539" cy="186.02" fill="#ADD1B2" rx="8" ry="8" style="stroke:#181818;stroke-width:1.0;"/><path d="M541.125,189.5825 Q540.5469,189.8794 539.9219,190.02 Q539.3125,190.1762 538.6406,190.1762 Q536.6406,190.1762 535.4688,189.0669 Q534.2969,187.9419 534.2969,186.02 Q534.2969,184.0981 535.4688,182.9731 Q536.6406,181.8481 538.6406,181.8481 Q539.3125,181.8481 539.9219,182.0044 Q540.5469,182.1606 541.125,182.4575 L541.125,184.1137 Q540.5469,183.7231 539.9844,183.5356 Q539.4219,183.3481 538.8125,183.3481 Q537.7031,183.3481 537.0625,184.0669 Q536.4375,184.77 536.4375,186.02 Q536.4375,187.2544 537.0625,187.9731 Q537.7031,188.6762 538.8125,188.6762 Q539.4219,188.6762 539.9844,188.5044 Q540.5469,188.3169 541.125,187.9262 L541.125,189.5825 Z " fill="#000000"/><text fill="#AAAAAA" font-family="Verdana" font-size="11" lengthAdjust="spacing" textLength="35" x="555" y="189.8281">Admin</text><line style="stroke:#1B1B1B;stroke-width:0.5;" x1="487" x2="633" y1="199.02" y2="199.02"/><line style="stroke:#1B1B1B;stroke-width:0.5;" x1="487" x2="633" y1="207.02" y2="207.02"/><ellipse cx="497" cy="218.4223" fill="#84BE84" rx="3" ry="3" style="stroke:#038048;stroke-width:1.0;"/><text fill="#AAAAAA" font-family="sans-serif" font-size="11" lengthAdjust="spacing" textLength="97" x="503" y="221.2304">void crearAutos()</text><ellipse cx="497" cy="231.227" fill="#84BE84" rx="3" ry="3" style="stroke:#038048;stroke-width:1.0;"/><text fill="#AAAAAA" font-family="sans-serif" font-size="11" lengthAdjust="spacing" textLength="113" x="503" y="234.0351">void eliminarAutos()</text><ellipse cx="497" cy="244.0317" fill="#84BE84" rx="3" ry="3" style="stroke:#038048;stroke-width:1.0;"/><text fill="#AAAAAA" font-family="sans-serif" font-size="11" lengthAdjust="spacing" textLength="125" x="503" y="246.8398">void eliminarUsuario()</text><ellipse cx="497" cy="256.8364" fill="#84BE84" rx="3" ry="3" style="stroke:#038048;stroke-width:1.0;"/><text fill="#AAAAAA" font-family="sans-serif" font-size="11" lengthAdjust="spacing" textLength="119" x="503" y="259.6445">void crearVendedor()</text></g><!--class Auto--><g id="elem_Auto"><rect codeLine="41" fill="#2E2E2E" height="182.8516" id="Auto" rx="2.5" ry="2.5" style="stroke:#1B1B1B;stroke-width:0.5;" width="316" x="159" y="735.12"/><ellipse cx="301" cy="748.12" fill="#ADD1B2" rx="8" ry="8" style="stroke:#181818;stroke-width:1.0;"/><path d="M303.125,751.6825 Q302.5469,751.9794 301.9219,752.12 Q301.3125,752.2763 300.6406,752.2763 Q298.6406,752.2763 297.4688,751.1669 Q296.2969,750.0419 296.2969,748.12 Q296.2969,746.1981 297.4688,745.0731 Q298.6406,743.9481 300.6406,743.9481 Q301.3125,743.9481 301.9219,744.1044 Q302.5469,744.2606 303.125,744.5575 L303.125,746.2138 Q302.5469,745.8231 301.9844,745.6356 Q301.4219,745.4481 300.8125,745.4481 Q299.7031,745.4481 299.0625,746.1669 Q298.4375,746.87 298.4375,748.12 Q298.4375,749.3544 299.0625,750.0731 Q299.7031,750.7763 300.8125,750.7763 Q301.4219,750.7763 301.9844,750.6044 Q302.5469,750.4169 303.125,750.0263 L303.125,751.6825 Z " fill="#000000"/><text fill="#AAAAAA" font-family="Verdana" font-size="11" lengthAdjust="spacing" textLength="25" x="317" y="751.9281">Auto</text><line style="stroke:#1B1B1B;stroke-width:0.5;" x1="160" x2="474" y1="761.12" y2="761.12"/><rect fill="none" height="6" style="stroke:#C82930;stroke-width:1.0;" width="6" x="167" y="769.5223"/><text fill="#AAAAAA" font-family="sans-serif" font-size="11" lengthAdjust="spacing" textLength="120" x="176" y="775.3304">Consultas[] reservas</text><rect fill="none" height="6" style="stroke:#C82930;stroke-width:1.0;" width="6" x="167" y="782.327"/><text fill="#AAAAAA" font-family="sans-serif" font-size="11" lengthAdjust="spacing" textLength="81" x="176" y="788.1351">String patente</text><rect fill="none" height="6" style="stroke:#C82930;stroke-width:1.0;" width="6" x="167" y="795.1317"/><text fill="#AAAAAA" font-family="sans-serif" font-size="11" lengthAdjust="spacing" textLength="80" x="176" y="800.9398">String modelo</text><rect fill="none" height="6" style="stroke:#C82930;stroke-width:1.0;" width="6" x="167" y="807.9364"/><text fill="#AAAAAA" font-family="sans-serif" font-size="11" lengthAdjust="spacing" textLength="66" x="176" y="813.7445">String color</text><rect fill="none" height="6" style="stroke:#C82930;stroke-width:1.0;" width="6" x="167" y="820.7411"/><text fill="#AAAAAA" font-family="sans-serif" font-size="11" lengthAdjust="spacing" textLength="74" x="176" y="826.5492">String marca</text><rect fill="none" height="6" style="stroke:#C82930;stroke-width:1.0;" width="6" x="167" y="833.5458"/><text fill="#AAAAAA" font-family="sans-serif" font-size="11" lengthAdjust="spacing" textLength="107" x="176" y="839.3539">Bool disponibilidad</text><rect fill="none" height="6" style="stroke:#C82930;stroke-width:1.0;" width="6" x="167" y="846.3505"/><text fill="#AAAAAA" font-family="sans-serif" font-size="11" lengthAdjust="spacing" textLength="87" x="176" y="852.1586">Float precio-dia</text><line style="stroke:#1B1B1B;stroke-width:0.5;" x1="160" x2="474" y1="858.7528" y2="858.7528"/><ellipse cx="170" cy="870.1552" fill="#84BE84" rx="3" ry="3" style="stroke:#038048;stroke-width:1.0;"/><text fill="#AAAAAA" font-family="sans-serif" font-size="11" lengthAdjust="spacing" textLength="293" x="176" y="872.9633">Bool validarDisponibilidad(Date fechaI, Date fechaF)</text><ellipse cx="170" cy="882.9598" fill="#84BE84" rx="3" ry="3" style="stroke:#038048;stroke-width:1.0;"/><text fill="#AAAAAA" font-family="sans-serif" font-size="11" lengthAdjust="spacing" textLength="213" x="176" y="885.7679">Float calcularPrecioTotal(Int cantDias)</text><ellipse cx="170" cy="895.7645" fill="#84BE84" rx="3" ry="3" style="stroke:#038048;stroke-width:1.0;"/><text fill="#AAAAAA" font-family="sans-serif" font-size="11" lengthAdjust="spacing" textLength="212" x="176" y="898.5726">Auto[] verListadoAutos(Autos[] autos)</text><ellipse cx="170" cy="908.5692" fill="#84BE84" rx="3" ry="3" style="stroke:#038048;stroke-width:1.0;"/><text fill="#AAAAAA" font-family="sans-serif" font-size="11" lengthAdjust="spacing" textLength="109" x="176" y="911.3773">void entregarAuto()</text></g><!--class Consulta--><g id="elem_Consulta"><rect codeLine="56" fill="#2E2E2E" height="208.4609" id="Consulta" rx="2.5" ry="2.5" style="stroke:#1B1B1B;stroke-width:0.5;" width="378" x="7" y="466.66"/><ellipse cx="167.5" cy="479.66" fill="#ADD1B2" rx="8" ry="8" style="stroke:#181818;stroke-width:1.0;"/><path d="M169.625,483.2225 Q169.0469,483.5194 168.4219,483.66 Q167.8125,483.8163 167.1406,483.8163 Q165.1406,483.8163 163.9688,482.7069 Q162.7969,481.5819 162.7969,479.66 Q162.7969,477.7381 163.9688,476.6131 Q165.1406,475.4881 167.1406,475.4881 Q167.8125,475.4881 168.4219,475.6444 Q169.0469,475.8006 169.625,476.0975 L169.625,477.7538 Q169.0469,477.3631 168.4844,477.1756 Q167.9219,476.9881 167.3125,476.9881 Q166.2031,476.9881 165.5625,477.7069 Q164.9375,478.41 164.9375,479.66 Q164.9375,480.8944 165.5625,481.6131 Q166.2031,482.3163 167.3125,482.3163 Q167.9219,482.3163 168.4844,482.1444 Q169.0469,481.9569 169.625,481.5663 L169.625,483.2225 Z " fill="#000000"/><text fill="#AAAAAA" font-family="Verdana" font-size="11" lengthAdjust="spacing" textLength="50" x="183.5" y="483.4681">Consulta</text><line style="stroke:#1B1B1B;stroke-width:0.5;" x1="8" x2="384" y1="492.66" y2="492.66"/><rect fill="none" height="6" style="stroke:#C82930;stroke-width:1.0;" width="6" x="15" y="501.0623"/><text fill="#AAAAAA" font-family="sans-serif" font-size="11" lengthAdjust="spacing" textLength="80" x="24" y="506.8704">Cliente cliente</text><rect fill="none" height="6" style="stroke:#C82930;stroke-width:1.0;" width="6" x="15" y="513.867"/><text fill="#AAAAAA" font-family="sans-serif" font-size="11" lengthAdjust="spacing" textLength="111" x="24" y="519.6751">Vendedor vendedor</text><rect fill="none" height="6" style="stroke:#C82930;stroke-width:1.0;" width="6" x="15" y="526.6717"/><text fill="#AAAAAA" font-family="sans-serif" font-size="11" lengthAdjust="spacing" textLength="80" x="24" y="532.4798">Oficina oficina</text><rect fill="none" height="6" style="stroke:#C82930;stroke-width:1.0;" width="6" x="15" y="539.4764"/><text fill="#AAAAAA" font-family="sans-serif" font-size="11" lengthAdjust="spacing" textLength="105" x="24" y="545.2845">Date inicioReserva</text><rect fill="none" height="6" style="stroke:#C82930;stroke-width:1.0;" width="6" x="15" y="552.2811"/><text fill="#AAAAAA" font-family="sans-serif" font-size="11" lengthAdjust="spacing" textLength="90" x="24" y="558.0892">Date finReserva</text><rect fill="none" height="6" style="stroke:#C82930;stroke-width:1.0;" width="6" x="15" y="565.0858"/><text fill="#AAAAAA" font-family="sans-serif" font-size="11" lengthAdjust="spacing" textLength="91" x="24" y="570.8939">Int cantidadDias</text><rect fill="none" height="6" style="stroke:#C82930;stroke-width:1.0;" width="6" x="15" y="577.8905"/><text fill="#AAAAAA" font-family="sans-serif" font-size="11" lengthAdjust="spacing" textLength="92" x="24" y="583.6986">Float precioFinal</text><rect fill="none" height="6" style="stroke:#C82930;stroke-width:1.0;" width="6" x="15" y="590.6952"/><text fill="#AAAAAA" font-family="sans-serif" font-size="11" lengthAdjust="spacing" textLength="86" x="24" y="596.5033">Bool cancelado</text><rect fill="none" height="6" style="stroke:#C82930;stroke-width:1.0;" width="6" x="15" y="603.4998"/><text fill="#AAAAAA" font-family="sans-serif" font-size="11" lengthAdjust="spacing" textLength="87" x="24" y="609.3079">Bool reservado</text><line style="stroke:#1B1B1B;stroke-width:0.5;" x1="8" x2="384" y1="615.9022" y2="615.9022"/><ellipse cx="18" cy="627.3045" fill="#84BE84" rx="3" ry="3" style="stroke:#038048;stroke-width:1.0;"/><text fill="#AAAAAA" font-family="sans-serif" font-size="11" lengthAdjust="spacing" textLength="196" x="24" y="630.1126">void mostrarConsultas(Persona p)</text><ellipse cx="18" cy="640.1092" fill="#84BE84" rx="3" ry="3" style="stroke:#038048;stroke-width:1.0;"/><text fill="#AAAAAA" font-family="sans-serif" font-size="11" lengthAdjust="spacing" textLength="355" x="24" y="642.9173">void crearConsulta(Cliente c, Auto a, Date fechaI, Date fechaF)</text><ellipse cx="18" cy="652.9139" fill="#84BE84" rx="3" ry="3" style="stroke:#038048;stroke-width:1.0;"/><text fill="#AAAAAA" font-family="sans-serif" font-size="11" lengthAdjust="spacing" textLength="236" x="24" y="655.722">void rechazarConsulta(Consulta consulta)</text><ellipse cx="18" cy="665.7186" fill="#84BE84" rx="3" ry="3" style="stroke:#038048;stroke-width:1.0;"/><text fill="#AAAAAA" font-family="sans-serif" font-size="11" lengthAdjust="spacing" textLength="230" x="24" y="668.5267">void aceptarConsulta(Consulta consulta)</text></g><!--class Oficina--><g id="elem_Oficina"><rect codeLine="73" fill="#2E2E2E" height="80.4141" id="Oficina" rx="2.5" ry="2.5" style="stroke:#1B1B1B;stroke-width:0.5;" width="147" x="335.5" y="326.24"/><ellipse cx="386" cy="339.24" fill="#ADD1B2" rx="8" ry="8" style="stroke:#181818;stroke-width:1.0;"/><path d="M388.125,342.8025 Q387.5469,343.0994 386.9219,343.24 Q386.3125,343.3963 385.6406,343.3963 Q383.6406,343.3963 382.4688,342.2869 Q381.2969,341.1619 381.2969,339.24 Q381.2969,337.3181 382.4688,336.1931 Q383.6406,335.0681 385.6406,335.0681 Q386.3125,335.0681 386.9219,335.2244 Q387.5469,335.3806 388.125,335.6775 L388.125,337.3338 Q387.5469,336.9431 386.9844,336.7556 Q386.4219,336.5681 385.8125,336.5681 Q384.7031,336.5681 384.0625,337.2869 Q383.4375,337.99 383.4375,339.24 Q383.4375,340.4744 384.0625,341.1931 Q384.7031,341.8963 385.8125,341.8963 Q386.4219,341.8963 386.9844,341.7244 Q387.5469,341.5369 388.125,341.1463 L388.125,342.8025 Z " fill="#000000"/><text fill="#AAAAAA" font-family="Verdana" font-size="11" lengthAdjust="spacing" textLength="39" x="402" y="343.0481">Oficina</text><line style="stroke:#1B1B1B;stroke-width:0.5;" x1="336.5" x2="481.5" y1="352.24" y2="352.24"/><rect fill="none" height="6" style="stroke:#C82930;stroke-width:1.0;" width="6" x="343.5" y="360.6423"/><text fill="#AAAAAA" font-family="sans-serif" font-size="11" lengthAdjust="spacing" textLength="124" x="352.5" y="366.4504">Consultas[] consultas</text><rect fill="none" height="6" style="stroke:#C82930;stroke-width:1.0;" width="6" x="343.5" y="373.447"/><text fill="#AAAAAA" font-family="sans-serif" font-size="11" lengthAdjust="spacing" textLength="89" x="352.5" y="379.2551">String direcci&#243;n</text><rect fill="none" height="6" style="stroke:#C82930;stroke-width:1.0;" width="6" x="343.5" y="386.2517"/><text fill="#AAAAAA" font-family="sans-serif" font-size="11" lengthAdjust="spacing" textLength="84" x="352.5" y="392.0598">String tel&#233;fono</text><line style="stroke:#1B1B1B;stroke-width:0.5;" x1="336.5" x2="481.5" y1="398.6541" y2="398.6541"/></g><!--link Persona to Vendedor--><g id="link_Persona_Vendedor"><path codeLine="80" d="M385,113.5 C385,139.83 385,170.59 385,192 " fill="none" id="Persona-Vendedor" style="stroke:#FFFFFF;stroke-width:1.0;"/></g><!--link Persona to Cliente--><g id="link_Persona_Cliente"><path codeLine="81" d="M344.03,113.25 C330.13,131.75 314.88,152.96 302,173.02 C269.14,224.22 236.08,286.32 215.82,325.86 " fill="none" id="Persona-Cliente" style="stroke:#FFFFFF;stroke-width:1.0;"/></g><!--link Persona to Admin--><g id="link_Persona_Admin"><path codeLine="82" d="M443.27,113.5 C464.55,132.66 488.43,154.17 509.03,172.72 " fill="none" id="Persona-Admin" style="stroke:#FFFFFF;stroke-width:1.0;"/></g><!--link Cliente to Consulta--><g id="link_Cliente_Consulta"><path codeLine="83" d="M196,406.96 C196,424.11 196,445.07 196,466.18 " fill="none" id="Cliente-Consulta" style="stroke:#FFFFFF;stroke-width:1.0;"/></g><!--link Oficina to Consulta--><g id="link_Oficina_Consulta"><path codeLine="84" d="M367.43,406.96 C349.39,424.11 327.33,445.07 305.12,466.18 " fill="none" id="Oficina-Consulta" style="stroke:#FFFFFF;stroke-width:1.0;"/></g><!--link Oficina to Auto--><g id="link_Oficina_Auto"><path codeLine="85" d="M414.33,406.71 C421.04,466.07 428.81,581.65 403,675.12 C397.39,695.42 388.42,715.86 378.35,734.85 " fill="none" id="Oficina-Auto" style="stroke:#FFFFFF;stroke-width:1.0;"/></g><!--link Vendedor to Oficina--><g id="link_Vendedor_Oficina"><path codeLine="86" d="M389.46,247.53 C393.1,269.54 398.31,300.97 402.44,325.85 " fill="none" id="Vendedor-Oficina" style="stroke:#FFFFFF;stroke-width:1.0;"/></g><!--link Consulta to Auto--><g id="link_Consulta_Auto"><path codeLine="87" d="M245.39,675.43 C254.8,695.15 264.58,715.66 273.78,734.94 " fill="none" id="Consulta-Auto" style="stroke:#FFFFFF;stroke-width:1.0;"/></g><!--SRC=[XLHBRXin3DtFATHL9sZc46aC0m7wGt-ReWj6eXsX6d50oLuaw86wxX5oiUe_SbAt6u_qzFXx9Ft2t-6CWb4fHkSc1Vo36EmUXq4QS4vSWuEtu5dVYuT1YEdguEdRTm7Xu-Bz0x8Z2m5QyiaDBwVtEorr0YcVt12uhuwabJWYlz7EWw9YwiQBzYY1zy0nnZEmi0F-SwZ95ImbTcEzq2gUFeLixLvOccyP8x01ZsA7yWxUWTIpHkkfcYYIXxa2nTAZUVor8qinL971H2li9TZ1aLXd6Lgki6SCoMxhsnZ9IQsr7WVo36Ejx2jQXOhueLc5yCbr4QTbTgLcRLUQPCoSNbOqeMfx7l_Y3i3wHFFefYPn4YwuI2fSatK7uy45ASBi81_1THekGVCWM8VCfD3qCaion3q1M4AyloOoGcctaDMtscW5gQzRG-35mYWrJKf3qJsnZn1fl3an6jV6troAzR9DTMPt4emyc31UoUrdyc36E1SIhDzeS8bQEhwERXOo_TPbkFXlfwfYUP7AH0cPln6gUeT0-H31iajrazeyQnlkz34hlqwvjXrK2ubYn6AUghWD3arJF30bcb1TGqfV4zBAcybv1cxz7yiMYkN9-5J6s4gz57dO-sRyfJF91SVxVU-boYVBOUM2nCN_czgwKFLyDiILsq-nqY4DgHz_stD_3qEjVfhQqlPOgRs7qiOELPJ8AP67cjiPB8etj249G7aRMhs5z0S0]--></g></svg>