<svg xmlns="http://www.w3.org/2000/svg" xmlns:xlink="http://www.w3.org/1999/xlink" contentStyleType="text/css" height="1082px" preserveAspectRatio="none" style="width:954px;height:1082px;background:#777777;" version="1.1" viewBox="0 0 954 1082" width="954px" zoomAndPan="magnify"><defs/><g><rect fill="#777777" height="1082" style="stroke:none;stroke-width:1.0;" width="954" x="0" y="0"/><!--class Main--><g id="elem_Main"><rect codeLine="3" fill="#2E2E2E" height="54.8047" id="Main" rx="2.5" ry="2.5" style="stroke:#1B1B1B;stroke-width:0.5;" width="86" x="324.5" y="7"/><ellipse cx="351.8" cy="20" fill="#ADD1B2" rx="8" ry="8" style="stroke:#181818;stroke-width:1.0;"/><path d="M353.925,23.5625 Q353.3469,23.8594 352.7219,24 Q352.1125,24.1563 351.4406,24.1563 Q349.4406,24.1563 348.2688,23.0469 Q347.0969,21.9219 347.0969,20 Q347.0969,18.0781 348.2688,16.9531 Q349.4406,15.8281 351.4406,15.8281 Q352.1125,15.8281 352.7219,15.9844 Q353.3469,16.1406 353.925,16.4375 L353.925,18.0938 Q353.3469,17.7031 352.7844,17.5156 Q352.2219,17.3281 351.6125,17.3281 Q350.5031,17.3281 349.8625,18.0469 Q349.2375,18.75 349.2375,20 Q349.2375,21.2344 349.8625,21.9531 Q350.5031,22.6563 351.6125,22.6563 Q352.2219,22.6563 352.7844,22.4844 Q353.3469,22.2969 353.925,21.9063 L353.925,23.5625 Z " fill="#000000"/><text fill="#AAAAAA" font-family="Verdana" font-size="11" lengthAdjust="spacing" textLength="26" x="366.2" y="23.8081">Main</text><line style="stroke:#1B1B1B;stroke-width:0.5;" x1="325.5" x2="409.5" y1="33" y2="33"/><ellipse cx="335.5" cy="44.4023" fill="none" rx="3" ry="3" style="stroke:#038048;stroke-width:1.0;"/><text fill="#AAAAAA" font-family="sans-serif" font-size="11" lengthAdjust="spacing" textLength="63" x="341.5" y="47.2104">main : void</text><line style="stroke:#1B1B1B;stroke-width:0.5;" x1="325.5" x2="409.5" y1="53.8047" y2="53.8047"/></g><!--class CasaMatriz--><g id="elem_CasaMatriz"><rect codeLine="7" fill="#2E2E2E" height="106.0234" id="CasaMatriz" rx="2.5" ry="2.5" style="stroke:#1B1B1B;stroke-width:0.5;" width="220" x="257.5" y="141.01"/><ellipse cx="333" cy="154.01" fill="#ADD1B2" rx="8" ry="8" style="stroke:#181818;stroke-width:1.0;"/><path d="M335.125,157.5725 Q334.5469,157.8694 333.9219,158.01 Q333.3125,158.1663 332.6406,158.1663 Q330.6406,158.1663 329.4688,157.0569 Q328.2969,155.9319 328.2969,154.01 Q328.2969,152.0881 329.4688,150.9631 Q330.6406,149.8381 332.6406,149.8381 Q333.3125,149.8381 333.9219,149.9944 Q334.5469,150.1506 335.125,150.4475 L335.125,152.1038 Q334.5469,151.7131 333.9844,151.5256 Q333.4219,151.3381 332.8125,151.3381 Q331.7031,151.3381 331.0625,152.0569 Q330.4375,152.76 330.4375,154.01 Q330.4375,155.2444 331.0625,155.9631 Q331.7031,156.6663 332.8125,156.6663 Q333.4219,156.6663 333.9844,156.4944 Q334.5469,156.3069 335.125,155.9163 L335.125,157.5725 Z " fill="#000000"/><text fill="#AAAAAA" font-family="Verdana" font-size="11" lengthAdjust="spacing" textLength="62" x="349" y="157.8181">CasaMatriz</text><line style="stroke:#1B1B1B;stroke-width:0.5;" x1="258.5" x2="476.5" y1="167.01" y2="167.01"/><line style="stroke:#1B1B1B;stroke-width:0.5;" x1="258.5" x2="476.5" y1="175.01" y2="175.01"/><ellipse cx="268.5" cy="186.4123" fill="#84BE84" rx="3" ry="3" style="stroke:#038048;stroke-width:1.0;"/><text fill="#AAAAAA" font-family="sans-serif" font-size="11" lengthAdjust="spacing" textLength="197" x="274.5" y="189.2204">CasaMatriz(Oficina, Persona, Auto)</text><ellipse cx="268.5" cy="199.217" fill="#84BE84" rx="3" ry="3" style="stroke:#038048;stroke-width:1.0;"/><text fill="#AAAAAA" font-family="sans-serif" font-size="11" lengthAdjust="spacing" textLength="152" x="274.5" y="202.0251">verListadoPersonas(): void</text><ellipse cx="268.5" cy="212.0217" fill="#84BE84" rx="3" ry="3" style="stroke:#038048;stroke-width:1.0;"/><text fill="#AAAAAA" font-family="sans-serif" font-size="11" lengthAdjust="spacing" textLength="101" x="274.5" y="214.8298">cargarAuto(): void</text><ellipse cx="268.5" cy="224.8264" fill="#84BE84" rx="3" ry="3" style="stroke:#038048;stroke-width:1.0;"/><text fill="#AAAAAA" font-family="sans-serif" font-size="11" lengthAdjust="spacing" textLength="123" x="274.5" y="227.6345">cargarPersona(): void</text><ellipse cx="268.5" cy="237.6311" fill="#84BE84" rx="3" ry="3" style="stroke:#038048;stroke-width:1.0;"/><text fill="#AAAAAA" font-family="sans-serif" font-size="11" lengthAdjust="spacing" textLength="90" x="274.5" y="240.4392">login(): Persona</text></g><!--class Persona--><g id="elem_Persona"><rect codeLine="18" fill="#2E2E2E" height="144.4375" id="Persona" rx="2.5" ry="2.5" style="stroke:#1B1B1B;stroke-width:0.5;" width="274" x="544.5" y="121.8"/><ellipse cx="654.5" cy="134.8" fill="#ADD1B2" rx="8" ry="8" style="stroke:#181818;stroke-width:1.0;"/><path d="M656.625,138.3625 Q656.0469,138.6594 655.4219,138.8 Q654.8125,138.9563 654.1406,138.9563 Q652.1406,138.9563 650.9688,137.8469 Q649.7969,136.7219 649.7969,134.8 Q649.7969,132.8781 650.9688,131.7531 Q652.1406,130.6281 654.1406,130.6281 Q654.8125,130.6281 655.4219,130.7844 Q656.0469,130.9406 656.625,131.2375 L656.625,132.8938 Q656.0469,132.5031 655.4844,132.3156 Q654.9219,132.1281 654.3125,132.1281 Q653.2031,132.1281 652.5625,132.8469 Q651.9375,133.55 651.9375,134.8 Q651.9375,136.0344 652.5625,136.7531 Q653.2031,137.4563 654.3125,137.4563 Q654.9219,137.4563 655.4844,137.2844 Q656.0469,137.0969 656.625,136.7063 L656.625,138.3625 Z " fill="#000000"/><text fill="#AAAAAA" font-family="Verdana" font-size="11" lengthAdjust="spacing" textLength="47" x="670.5" y="138.6081">Persona</text><line style="stroke:#1B1B1B;stroke-width:0.5;" x1="545.5" x2="817.5" y1="147.8" y2="147.8"/><rect fill="none" height="6" style="stroke:#C82930;stroke-width:1.0;" width="6" x="552.5" y="156.2023"/><text fill="#AAAAAA" font-family="sans-serif" font-size="11" lengthAdjust="spacing" textLength="32" x="561.5" y="162.0104">id: int</text><rect fill="none" height="6" style="stroke:#C82930;stroke-width:1.0;" width="6" x="552.5" y="169.007"/><text fill="#AAAAAA" font-family="sans-serif" font-size="11" lengthAdjust="spacing" textLength="86" x="561.5" y="174.8151">nombre: String</text><rect fill="none" height="6" style="stroke:#C82930;stroke-width:1.0;" width="6" x="552.5" y="181.8117"/><text fill="#AAAAAA" font-family="sans-serif" font-size="11" lengthAdjust="spacing" textLength="128" x="561.5" y="187.6198">fechaNacimiento: Date</text><rect fill="none" height="6" style="stroke:#C82930;stroke-width:1.0;" width="6" x="552.5" y="194.6164"/><text fill="#AAAAAA" font-family="sans-serif" font-size="11" lengthAdjust="spacing" textLength="85" x="561.5" y="200.4245">documento: int</text><rect fill="none" height="6" style="stroke:#C82930;stroke-width:1.0;" width="6" x="552.5" y="207.4211"/><text fill="#AAAAAA" font-family="sans-serif" font-size="11" lengthAdjust="spacing" textLength="88" x="561.5" y="213.2292">tel&#233;fono: String</text><rect fill="none" height="6" style="stroke:#C82930;stroke-width:1.0;" width="6" x="552.5" y="220.2258"/><text fill="#AAAAAA" font-family="sans-serif" font-size="11" lengthAdjust="spacing" textLength="73" x="561.5" y="226.0339">email: String</text><rect fill="none" height="6" style="stroke:#C82930;stroke-width:1.0;" width="6" x="552.5" y="233.0305"/><text fill="#AAAAAA" font-family="sans-serif" font-size="11" lengthAdjust="spacing" textLength="109" x="561.5" y="238.8386">contrasenia: String</text><line style="stroke:#1B1B1B;stroke-width:0.5;" x1="545.5" x2="817.5" y1="245.4328" y2="245.4328"/><ellipse cx="555.5" cy="256.8352" fill="#84BE84" rx="3" ry="3" style="stroke:#038048;stroke-width:1.0;"/><text fill="#AAAAAA" font-family="sans-serif" font-size="11" lengthAdjust="spacing" textLength="251" x="561.5" y="259.6433">Persona(int, String, Date, int, String, String)</text></g><!--class Cliente--><g id="elem_Cliente"><rect codeLine="30" fill="#2E2E2E" height="80.4141" id="Cliente" rx="2.5" ry="2.5" style="stroke:#1B1B1B;stroke-width:0.5;" width="184" x="397.5" y="346.64"/><ellipse cx="466.5" cy="359.64" fill="#ADD1B2" rx="8" ry="8" style="stroke:#181818;stroke-width:1.0;"/><path d="M468.625,363.2025 Q468.0469,363.4994 467.4219,363.64 Q466.8125,363.7963 466.1406,363.7963 Q464.1406,363.7963 462.9688,362.6869 Q461.7969,361.5619 461.7969,359.64 Q461.7969,357.7181 462.9688,356.5931 Q464.1406,355.4681 466.1406,355.4681 Q466.8125,355.4681 467.4219,355.6244 Q468.0469,355.7806 468.625,356.0775 L468.625,357.7338 Q468.0469,357.3431 467.4844,357.1556 Q466.9219,356.9681 466.3125,356.9681 Q465.2031,356.9681 464.5625,357.6869 Q463.9375,358.39 463.9375,359.64 Q463.9375,360.8744 464.5625,361.5931 Q465.2031,362.2963 466.3125,362.2963 Q466.9219,362.2963 467.4844,362.1244 Q468.0469,361.9369 468.625,361.5463 L468.625,363.2025 Z " fill="#000000"/><text fill="#AAAAAA" font-family="Verdana" font-size="11" lengthAdjust="spacing" textLength="39" x="482.5" y="363.4481">Cliente</text><line style="stroke:#1B1B1B;stroke-width:0.5;" x1="398.5" x2="580.5" y1="372.64" y2="372.64"/><rect fill="none" height="6" style="stroke:#C82930;stroke-width:1.0;" width="6" x="405.5" y="381.0423"/><text fill="#AAAAAA" font-family="sans-serif" font-size="11" lengthAdjust="spacing" textLength="83" x="414.5" y="386.8504">favoritos: Auto</text><line style="stroke:#1B1B1B;stroke-width:0.5;" x1="398.5" x2="580.5" y1="393.4447" y2="393.4447"/><ellipse cx="408.5" cy="404.847" fill="#84BE84" rx="3" ry="3" style="stroke:#038048;stroke-width:1.0;"/><text fill="#AAAAAA" font-family="sans-serif" font-size="11" lengthAdjust="spacing" textLength="161" x="414.5" y="407.6551">agregarFavoritos(Auto): void</text><ellipse cx="408.5" cy="417.6517" fill="#84BE84" rx="3" ry="3" style="stroke:#038048;stroke-width:1.0;"/><text fill="#AAAAAA" font-family="sans-serif" font-size="11" lengthAdjust="spacing" textLength="148" x="414.5" y="420.4598">sacarFavoritos(Auto): void</text></g><!--class Vendedor--><g id="elem_Vendedor"><rect codeLine="38" fill="#2E2E2E" height="54.8047" id="Vendedor" rx="2.5" ry="2.5" style="stroke:#1B1B1B;stroke-width:0.5;" width="136" x="583.5" y="584.29"/><ellipse cx="621" cy="597.29" fill="#ADD1B2" rx="8" ry="8" style="stroke:#181818;stroke-width:1.0;"/><path d="M623.125,600.8525 Q622.5469,601.1494 621.9219,601.29 Q621.3125,601.4463 620.6406,601.4463 Q618.6406,601.4463 617.4688,600.3369 Q616.2969,599.2119 616.2969,597.29 Q616.2969,595.3681 617.4688,594.2431 Q618.6406,593.1181 620.6406,593.1181 Q621.3125,593.1181 621.9219,593.2744 Q622.5469,593.4306 623.125,593.7275 L623.125,595.3838 Q622.5469,594.9931 621.9844,594.8056 Q621.4219,594.6181 620.8125,594.6181 Q619.7031,594.6181 619.0625,595.3369 Q618.4375,596.04 618.4375,597.29 Q618.4375,598.5244 619.0625,599.2431 Q619.7031,599.9463 620.8125,599.9463 Q621.4219,599.9463 621.9844,599.7744 Q622.5469,599.5869 623.125,599.1963 L623.125,600.8525 Z " fill="#000000"/><text fill="#AAAAAA" font-family="Verdana" font-size="11" lengthAdjust="spacing" textLength="54" x="637" y="601.0981">Vendedor</text><line style="stroke:#1B1B1B;stroke-width:0.5;" x1="584.5" x2="718.5" y1="610.29" y2="610.29"/><line style="stroke:#1B1B1B;stroke-width:0.5;" x1="584.5" x2="718.5" y1="618.29" y2="618.29"/><ellipse cx="594.5" cy="629.6923" fill="#84BE84" rx="3" ry="3" style="stroke:#038048;stroke-width:1.0;"/><text fill="#AAAAAA" font-family="sans-serif" font-size="11" lengthAdjust="spacing" textLength="113" x="600.5" y="632.5004">entregarAuto(): void</text></g><!--class Admin--><g id="elem_Admin"><rect codeLine="42" fill="#2E2E2E" height="93.2188" id="Admin" rx="2.5" ry="2.5" style="stroke:#1B1B1B;stroke-width:0.5;" width="152" x="686.5" y="340.24"/><ellipse cx="741.5" cy="353.24" fill="#ADD1B2" rx="8" ry="8" style="stroke:#181818;stroke-width:1.0;"/><path d="M743.625,356.8025 Q743.0469,357.0994 742.4219,357.24 Q741.8125,357.3963 741.1406,357.3963 Q739.1406,357.3963 737.9688,356.2869 Q736.7969,355.1619 736.7969,353.24 Q736.7969,351.3181 737.9688,350.1931 Q739.1406,349.0681 741.1406,349.0681 Q741.8125,349.0681 742.4219,349.2244 Q743.0469,349.3806 743.625,349.6775 L743.625,351.3338 Q743.0469,350.9431 742.4844,350.7556 Q741.9219,350.5681 741.3125,350.5681 Q740.2031,350.5681 739.5625,351.2869 Q738.9375,351.99 738.9375,353.24 Q738.9375,354.4744 739.5625,355.1931 Q740.2031,355.8963 741.3125,355.8963 Q741.9219,355.8963 742.4844,355.7244 Q743.0469,355.5369 743.625,355.1463 L743.625,356.8025 Z " fill="#000000"/><text fill="#AAAAAA" font-family="Verdana" font-size="11" lengthAdjust="spacing" textLength="35" x="757.5" y="357.0481">Admin</text><line style="stroke:#1B1B1B;stroke-width:0.5;" x1="687.5" x2="837.5" y1="366.24" y2="366.24"/><line style="stroke:#1B1B1B;stroke-width:0.5;" x1="687.5" x2="837.5" y1="374.24" y2="374.24"/><ellipse cx="697.5" cy="385.6423" fill="#84BE84" rx="3" ry="3" style="stroke:#038048;stroke-width:1.0;"/><text fill="#AAAAAA" font-family="sans-serif" font-size="11" lengthAdjust="spacing" textLength="101" x="703.5" y="388.4504">crearAutos(): void</text><ellipse cx="697.5" cy="398.447" fill="#84BE84" rx="3" ry="3" style="stroke:#038048;stroke-width:1.0;"/><text fill="#AAAAAA" font-family="sans-serif" font-size="11" lengthAdjust="spacing" textLength="117" x="703.5" y="401.2551">eliminarAutos(): void</text><ellipse cx="697.5" cy="411.2517" fill="#84BE84" rx="3" ry="3" style="stroke:#038048;stroke-width:1.0;"/><text fill="#AAAAAA" font-family="sans-serif" font-size="11" lengthAdjust="spacing" textLength="129" x="703.5" y="414.0598">eliminarUsuario(): void</text><ellipse cx="697.5" cy="424.0564" fill="#84BE84" rx="3" ry="3" style="stroke:#038048;stroke-width:1.0;"/><text fill="#AAAAAA" font-family="sans-serif" font-size="11" lengthAdjust="spacing" textLength="123" x="703.5" y="426.8645">crearVendedor(): void</text></g><!--class Auto--><g id="elem_Auto"><rect codeLine="49" fill="#2E2E2E" height="285.2891" id="Auto" rx="2.5" ry="2.5" style="stroke:#1B1B1B;stroke-width:0.5;" width="241" x="7" y="789.92"/><ellipse cx="111.5" cy="802.92" fill="#ADD1B2" rx="8" ry="8" style="stroke:#181818;stroke-width:1.0;"/><path d="M113.625,806.4825 Q113.0469,806.7794 112.4219,806.92 Q111.8125,807.0763 111.1406,807.0763 Q109.1406,807.0763 107.9688,805.9669 Q106.7969,804.8419 106.7969,802.92 Q106.7969,800.9981 107.9688,799.8731 Q109.1406,798.7481 111.1406,798.7481 Q111.8125,798.7481 112.4219,798.9044 Q113.0469,799.0606 113.625,799.3575 L113.625,801.0138 Q113.0469,800.6231 112.4844,800.4356 Q111.9219,800.2481 111.3125,800.2481 Q110.2031,800.2481 109.5625,800.9669 Q108.9375,801.67 108.9375,802.92 Q108.9375,804.1544 109.5625,804.8731 Q110.2031,805.5763 111.3125,805.5763 Q111.9219,805.5763 112.4844,805.4044 Q113.0469,805.2169 113.625,804.8263 L113.625,806.4825 Z " fill="#000000"/><text fill="#AAAAAA" font-family="Verdana" font-size="11" lengthAdjust="spacing" textLength="25" x="127.5" y="806.7281">Auto</text><line style="stroke:#1B1B1B;stroke-width:0.5;" x1="8" x2="247" y1="815.92" y2="815.92"/><rect fill="none" height="6" style="stroke:#C82930;stroke-width:1.0;" width="6" x="15" y="824.3223"/><text fill="#AAAAAA" font-family="sans-serif" font-size="11" lengthAdjust="spacing" textLength="116" x="24" y="830.1304">reservas: Consultas</text><rect fill="none" height="6" style="stroke:#C82930;stroke-width:1.0;" width="6" x="15" y="837.127"/><text fill="#AAAAAA" font-family="sans-serif" font-size="11" lengthAdjust="spacing" textLength="85" x="24" y="842.9351">patente: String</text><rect fill="none" height="6" style="stroke:#C82930;stroke-width:1.0;" width="6" x="15" y="849.9317"/><text fill="#AAAAAA" font-family="sans-serif" font-size="11" lengthAdjust="spacing" textLength="84" x="24" y="855.7398">modelo: String</text><rect fill="none" height="6" style="stroke:#C82930;stroke-width:1.0;" width="6" x="15" y="862.7364"/><text fill="#AAAAAA" font-family="sans-serif" font-size="11" lengthAdjust="spacing" textLength="70" x="24" y="868.5445">color: String</text><rect fill="none" height="6" style="stroke:#C82930;stroke-width:1.0;" width="6" x="15" y="875.5411"/><text fill="#AAAAAA" font-family="sans-serif" font-size="11" lengthAdjust="spacing" textLength="78" x="24" y="881.3492">marca: String</text><rect fill="none" height="6" style="stroke:#C82930;stroke-width:1.0;" width="6" x="15" y="888.3458"/><text fill="#AAAAAA" font-family="sans-serif" font-size="11" lengthAdjust="spacing" textLength="111" x="24" y="894.1539">disponibilidad: Bool</text><rect fill="none" height="6" style="stroke:#C82930;stroke-width:1.0;" width="6" x="15" y="901.1505"/><text fill="#AAAAAA" font-family="sans-serif" font-size="11" lengthAdjust="spacing" textLength="91" x="24" y="906.9586">precio-dia: Float</text><rect fill="none" height="6" style="stroke:#C82930;stroke-width:1.0;" width="6" x="15" y="913.9552"/><text fill="#AAAAAA" font-family="sans-serif" font-size="11" lengthAdjust="spacing" textLength="133" x="24" y="919.7633">cantidadGasolina: Float</text><rect fill="none" height="6" style="stroke:#C82930;stroke-width:1.0;" width="6" x="15" y="926.7598"/><text fill="#AAAAAA" font-family="sans-serif" font-size="11" lengthAdjust="spacing" textLength="113" x="24" y="932.5679">oficinaActual: String</text><line style="stroke:#1B1B1B;stroke-width:0.5;" x1="8" x2="247" y1="939.1622" y2="939.1622"/><ellipse cx="18" cy="950.5645" fill="#84BE84" rx="3" ry="3" style="stroke:#038048;stroke-width:1.0;"/><text fill="#AAAAAA" font-family="sans-serif" font-size="11" lengthAdjust="spacing" textLength="33" x="24" y="953.3726">Auto()</text><ellipse cx="18" cy="963.3692" fill="#84BE84" rx="3" ry="3" style="stroke:#038048;stroke-width:1.0;"/><text fill="#AAAAAA" font-family="sans-serif" font-size="11" lengthAdjust="spacing" textLength="218" x="24" y="966.1773">validarDisponibilidad(Date, Date): Bool</text><ellipse cx="18" cy="976.1739" fill="#84BE84" rx="3" ry="3" style="stroke:#038048;stroke-width:1.0;"/><text fill="#AAAAAA" font-family="sans-serif" font-size="11" lengthAdjust="spacing" textLength="164" x="24" y="978.982">calcularPrecioTotal(int): Float</text><ellipse cx="18" cy="988.9786" fill="#84BE84" rx="3" ry="3" style="stroke:#038048;stroke-width:1.0;"/><text fill="#AAAAAA" font-family="sans-serif" font-size="11" lengthAdjust="spacing" textLength="157" x="24" y="991.7867">verListadoAutos(Auto): Auto</text><ellipse cx="18" cy="1001.7833" fill="#84BE84" rx="3" ry="3" style="stroke:#038048;stroke-width:1.0;"/><text fill="#AAAAAA" font-family="sans-serif" font-size="11" lengthAdjust="spacing" textLength="113" x="24" y="1004.5914">entregarAuto(): void</text><rect fill="#F24D5C" height="6" style="stroke:#C82930;stroke-width:1.0;" width="6" x="15" y="1011.588"/><text fill="#AAAAAA" font-family="sans-serif" font-size="11" lengthAdjust="spacing" textLength="142" x="24" y="1017.3961">consultarGasolina(): void</text><rect fill="#F24D5C" height="6" style="stroke:#C82930;stroke-width:1.0;" width="6" x="15" y="1024.3927"/><text fill="#AAAAAA" font-family="sans-serif" font-size="11" lengthAdjust="spacing" textLength="138" x="24" y="1030.2008">recargarGasolina(): void</text><rect fill="#F24D5C" height="6" style="stroke:#C82930;stroke-width:1.0;" width="6" x="15" y="1037.1973"/><text fill="#AAAAAA" font-family="sans-serif" font-size="11" lengthAdjust="spacing" textLength="142" x="24" y="1043.0054">consumirGasolina(): void</text><rect fill="#F24D5C" height="6" style="stroke:#C82930;stroke-width:1.0;" width="6" x="15" y="1050.002"/><text fill="#AAAAAA" font-family="sans-serif" font-size="11" lengthAdjust="spacing" textLength="141" x="24" y="1055.8101">consumoGasolina(): void</text><rect fill="#F24D5C" height="6" style="stroke:#C82930;stroke-width:1.0;" width="6" x="15" y="1062.8067"/><text fill="#AAAAAA" font-family="sans-serif" font-size="11" lengthAdjust="spacing" textLength="187" x="24" y="1068.6148">transportarOficinaOriginal(): void</text></g><!--class Consulta--><g id="elem_Consulta"><rect codeLine="72" fill="#2E2E2E" height="208.4609" id="Consulta" rx="2.5" ry="2.5" style="stroke:#1B1B1B;stroke-width:0.5;" width="282" x="196.5" y="507.46"/><ellipse cx="309" cy="520.46" fill="#ADD1B2" rx="8" ry="8" style="stroke:#181818;stroke-width:1.0;"/><path d="M311.125,524.0225 Q310.5469,524.3194 309.9219,524.46 Q309.3125,524.6163 308.6406,524.6163 Q306.6406,524.6163 305.4688,523.5069 Q304.2969,522.3819 304.2969,520.46 Q304.2969,518.5381 305.4688,517.4131 Q306.6406,516.2881 308.6406,516.2881 Q309.3125,516.2881 309.9219,516.4444 Q310.5469,516.6006 311.125,516.8975 L311.125,518.5538 Q310.5469,518.1631 309.9844,517.9756 Q309.4219,517.7881 308.8125,517.7881 Q307.7031,517.7881 307.0625,518.5069 Q306.4375,519.21 306.4375,520.46 Q306.4375,521.6944 307.0625,522.4131 Q307.7031,523.1163 308.8125,523.1163 Q309.4219,523.1163 309.9844,522.9444 Q310.5469,522.7569 311.125,522.3663 L311.125,524.0225 Z " fill="#000000"/><text fill="#AAAAAA" font-family="Verdana" font-size="11" lengthAdjust="spacing" textLength="50" x="325" y="524.2681">Consulta</text><line style="stroke:#1B1B1B;stroke-width:0.5;" x1="197.5" x2="477.5" y1="533.46" y2="533.46"/><rect fill="none" height="6" style="stroke:#C82930;stroke-width:1.0;" width="6" x="204.5" y="541.8623"/><text fill="#AAAAAA" font-family="sans-serif" font-size="11" lengthAdjust="spacing" textLength="84" x="213.5" y="547.6704">cliente: Cliente</text><rect fill="none" height="6" style="stroke:#C82930;stroke-width:1.0;" width="6" x="204.5" y="554.667"/><text fill="#AAAAAA" font-family="sans-serif" font-size="11" lengthAdjust="spacing" textLength="115" x="213.5" y="560.4751">vendedor: Vendedor</text><rect fill="none" height="6" style="stroke:#C82930;stroke-width:1.0;" width="6" x="204.5" y="567.4717"/><text fill="#AAAAAA" font-family="sans-serif" font-size="11" lengthAdjust="spacing" textLength="84" x="213.5" y="573.2798">oficina: Oficina</text><rect fill="none" height="6" style="stroke:#C82930;stroke-width:1.0;" width="6" x="204.5" y="580.2764"/><text fill="#AAAAAA" font-family="sans-serif" font-size="11" lengthAdjust="spacing" textLength="109" x="213.5" y="586.0845">inicioReserva: Date</text><rect fill="none" height="6" style="stroke:#C82930;stroke-width:1.0;" width="6" x="204.5" y="593.0811"/><text fill="#AAAAAA" font-family="sans-serif" font-size="11" lengthAdjust="spacing" textLength="94" x="213.5" y="598.8892">finReserva: Date</text><rect fill="none" height="6" style="stroke:#C82930;stroke-width:1.0;" width="6" x="204.5" y="605.8858"/><text fill="#AAAAAA" font-family="sans-serif" font-size="11" lengthAdjust="spacing" textLength="95" x="213.5" y="611.6939">cantidadDias: int</text><rect fill="none" height="6" style="stroke:#C82930;stroke-width:1.0;" width="6" x="204.5" y="618.6905"/><text fill="#AAAAAA" font-family="sans-serif" font-size="11" lengthAdjust="spacing" textLength="94" x="213.5" y="624.4986">precioFinal: float</text><rect fill="none" height="6" style="stroke:#C82930;stroke-width:1.0;" width="6" x="204.5" y="631.4952"/><text fill="#AAAAAA" font-family="sans-serif" font-size="11" lengthAdjust="spacing" textLength="90" x="213.5" y="637.3033">cancelado: Bool</text><rect fill="none" height="6" style="stroke:#C82930;stroke-width:1.0;" width="6" x="204.5" y="644.2998"/><text fill="#AAAAAA" font-family="sans-serif" font-size="11" lengthAdjust="spacing" textLength="91" x="213.5" y="650.1079">reservado: Bool</text><line style="stroke:#1B1B1B;stroke-width:0.5;" x1="197.5" x2="477.5" y1="656.7022" y2="656.7022"/><ellipse cx="207.5" cy="668.1045" fill="#84BE84" rx="3" ry="3" style="stroke:#038048;stroke-width:1.0;"/><text fill="#AAAAAA" font-family="sans-serif" font-size="11" lengthAdjust="spacing" textLength="189" x="213.5" y="670.9126">mostrarConsultas(Persona): void</text><ellipse cx="207.5" cy="680.9092" fill="#84BE84" rx="3" ry="3" style="stroke:#038048;stroke-width:1.0;"/><text fill="#AAAAAA" font-family="sans-serif" font-size="11" lengthAdjust="spacing" textLength="259" x="213.5" y="683.7173">crearConsulta(Cliente, Auto, Date, Date): void</text><ellipse cx="207.5" cy="693.7139" fill="#84BE84" rx="3" ry="3" style="stroke:#038048;stroke-width:1.0;"/><text fill="#AAAAAA" font-family="sans-serif" font-size="11" lengthAdjust="spacing" textLength="188" x="213.5" y="696.522">rechazarConsulta(Consulta): void</text><ellipse cx="207.5" cy="706.5186" fill="#84BE84" rx="3" ry="3" style="stroke:#038048;stroke-width:1.0;"/><text fill="#AAAAAA" font-family="sans-serif" font-size="11" lengthAdjust="spacing" textLength="182" x="213.5" y="709.3267">aceptarConsulta(Consulta): void</text></g><!--class Oficina--><g id="elem_Oficina"><rect codeLine="90" fill="#2E2E2E" height="67.6094" id="Oficina" rx="2.5" ry="2.5" style="stroke:#1B1B1B;stroke-width:0.5;" width="116" x="246.5" y="353.05"/><ellipse cx="281.5" cy="366.05" fill="#ADD1B2" rx="8" ry="8" style="stroke:#181818;stroke-width:1.0;"/><path d="M283.625,369.6125 Q283.0469,369.9094 282.4219,370.05 Q281.8125,370.2063 281.1406,370.2063 Q279.1406,370.2063 277.9688,369.0969 Q276.7969,367.9719 276.7969,366.05 Q276.7969,364.1281 277.9688,363.0031 Q279.1406,361.8781 281.1406,361.8781 Q281.8125,361.8781 282.4219,362.0344 Q283.0469,362.1906 283.625,362.4875 L283.625,364.1438 Q283.0469,363.7531 282.4844,363.5656 Q281.9219,363.3781 281.3125,363.3781 Q280.2031,363.3781 279.5625,364.0969 Q278.9375,364.8 278.9375,366.05 Q278.9375,367.2844 279.5625,368.0031 Q280.2031,368.7063 281.3125,368.7063 Q281.9219,368.7063 282.4844,368.5344 Q283.0469,368.3469 283.625,367.9563 L283.625,369.6125 Z " fill="#000000"/><text fill="#AAAAAA" font-family="Verdana" font-size="11" lengthAdjust="spacing" textLength="39" x="297.5" y="369.8581">Oficina</text><line style="stroke:#1B1B1B;stroke-width:0.5;" x1="247.5" x2="361.5" y1="379.05" y2="379.05"/><rect fill="none" height="6" style="stroke:#C82930;stroke-width:1.0;" width="6" x="254.5" y="387.4523"/><text fill="#AAAAAA" font-family="sans-serif" font-size="11" lengthAdjust="spacing" textLength="93" x="263.5" y="393.2604">direcci&#243;n: String</text><rect fill="none" height="6" style="stroke:#C82930;stroke-width:1.0;" width="6" x="254.5" y="400.257"/><text fill="#AAAAAA" font-family="sans-serif" font-size="11" lengthAdjust="spacing" textLength="88" x="263.5" y="406.0651">tel&#233;fono: String</text><line style="stroke:#1B1B1B;stroke-width:0.5;" x1="247.5" x2="361.5" y1="412.6594" y2="412.6594"/></g><!--class Menu--><g id="elem_Menu"><rect codeLine="95" fill="#2E2E2E" height="67.6094" id="Menu" rx="2.5" ry="2.5" style="stroke:#1B1B1B;stroke-width:0.5;" width="127" x="691" y="898.76"/><ellipse cx="730" cy="911.76" fill="#B4A7E5" rx="8" ry="8" style="stroke:#181818;stroke-width:1.0;"/><path d="M729.0156,907.7444 L731.0781,907.7444 L731.0781,915.76 L729.0156,915.76 L729.0156,907.7444 Z " fill="#000000"/><rect fill="#F24D5C" height="6" style="stroke:#C82930;stroke-width:1.0;" width="6" x="748" y="907.76"/><text fill="#AAAAAA" font-family="Verdana" font-size="11" font-style="italic" lengthAdjust="spacing" textLength="30" x="758" y="915.5681">Menu</text><line style="stroke:#1B1B1B;stroke-width:0.5;" x1="692" x2="817" y1="924.76" y2="924.76"/><line style="stroke:#1B1B1B;stroke-width:0.5;" x1="692" x2="817" y1="932.76" y2="932.76"/><ellipse cx="702" cy="944.1623" fill="#84BE84" rx="3" ry="3" style="stroke:#038048;stroke-width:1.0;"/><text fill="#AAAAAA" font-family="sans-serif" font-size="11" lengthAdjust="spacing" textLength="87" x="708" y="946.9704">verMenu(): void</text><ellipse cx="702" cy="956.967" fill="#84BE84" rx="3" ry="3" style="stroke:#038048;stroke-width:1.0;"/><text fill="#AAAAAA" font-family="sans-serif" font-size="11" lengthAdjust="spacing" textLength="104" x="708" y="959.7751">seleccionar(): void</text></g><!--link Main to CasaMatriz--><g id="link_Main_CasaMatriz"><path codeLine="101" d="M367.5,62.14 C367.5,83.57 367.5,114.3 367.5,140.6 " fill="none" id="Main-CasaMatriz" style="stroke:#FFFFFF;stroke-width:1.0;"/></g><!--reverse link CasaMatriz to Admin--><g id="link_CasaMatriz_Admin"><path codeLine="103" d="M486.765,252.6403 C553.455,284.8603 626.47,320.13 686.19,348.98 " fill="none" id="CasaMatriz-backto-Admin" style="stroke:#FFFFFF;stroke-width:1.0;"/><polygon fill="#FFFFFF" points="475.96,247.42,479.6224,253.6318,486.765,252.6403,483.1026,246.4284,475.96,247.42" style="stroke:#FFFFFF;stroke-width:1.0;"/><text fill="#BBBBBB" font-family="Verdana" font-size="11" lengthAdjust="spacing" textLength="42" x="600.5" y="307.4504">Admins</text><text fill="#BBBBBB" font-family="Verdana" font-size="11" lengthAdjust="spacing" textLength="7" x="482.408" y="265.2924">1</text><text fill="#BBBBBB" font-family="Verdana" font-size="11" lengthAdjust="spacing" textLength="6" x="672.3829" y="342.9117">*</text></g><!--reverse link CasaMatriz to Auto--><g id="link_CasaMatriz_Auto"><path codeLine="104" d="M286.8606,254.8573 C218.2806,310.3373 129.25,397.51 93.5,507.46 C63.92,598.43 72.97,705.89 89.13,789.88 " fill="none" id="CasaMatriz-backto-Auto" style="stroke:#FFFFFF;stroke-width:1.0;"/><polygon fill="#FFFFFF" points="296.19,247.31,289.0095,247.9739,286.8606,254.8573,294.0411,254.1935,296.19,247.31" style="stroke:#FFFFFF;stroke-width:1.0;"/><text fill="#BBBBBB" font-family="Verdana" font-size="11" lengthAdjust="spacing" textLength="32" x="112.5" y="474.6704">Autos</text><text fill="#BBBBBB" font-family="Verdana" font-size="11" lengthAdjust="spacing" textLength="7" x="279.605" y="265.1683">1</text><text fill="#BBBBBB" font-family="Verdana" font-size="11" lengthAdjust="spacing" textLength="6" x="80.7383" y="779.5179">*</text></g><!--reverse link CasaMatriz to Oficina--><g id="link_CasaMatriz_Oficina"><path codeLine="105" d="M335.0111,258.1775 C327.7811,273.6175 325.66,279.89 320.5,296.24 C314.74,314.48 310.86,335.49 308.35,352.59 " fill="none" id="CasaMatriz-backto-Oficina" style="stroke:#FFFFFF;stroke-width:1.0;"/><polygon fill="#FFFFFF" points="340.1,247.31,333.933,251.0475,335.0111,258.1775,341.1781,254.4401,340.1,247.31" style="stroke:#FFFFFF;stroke-width:1.0;"/><text fill="#BBBBBB" font-family="Verdana" font-size="11" lengthAdjust="spacing" textLength="46" x="321.5" y="307.4504">Oficinas</text><text fill="#BBBBBB" font-family="Verdana" font-size="11" lengthAdjust="spacing" textLength="7" x="329.1409" y="265.1683">1</text><text fill="#BBBBBB" font-family="Verdana" font-size="11" lengthAdjust="spacing" textLength="6" x="302.5253" y="342.5788">*</text></g><!--reverse link CasaMatriz to Cliente--><g id="link_CasaMatriz_Cliente"><path codeLine="106" d="M386.7357,258.7917 C394.0057,279.3217 399.9,291.15 412.5,310.24 C420.96,323.06 431.9,335.43 442.87,346.31 " fill="none" id="CasaMatriz-backto-Cliente" style="stroke:#FFFFFF;stroke-width:1.0;"/><polygon fill="none" points="382.73,247.48,380.9623,254.4711,386.7357,258.7917,388.5034,251.8006,382.73,247.48" style="stroke:#FFFFFF;stroke-width:1.0;"/><text fill="#BBBBBB" font-family="Verdana" font-size="11" lengthAdjust="spacing" textLength="46" x="413.5" y="307.4504">Clientes</text><text fill="#BBBBBB" font-family="Verdana" font-size="11" lengthAdjust="spacing" textLength="6" x="427.7195" y="336.0144">*</text></g><!--reverse link Persona to Admin--><g id="link_Persona_Admin"><path codeLine="108" d="M718.9251,283.1883 C729.3451,307.7283 733.67,317.94 742.99,339.89 " fill="none" id="Persona-backto-Admin" style="stroke:#FFFFFF;stroke-width:1.0;"/><polygon fill="none" points="711.89,266.62,713.4023,285.5333,724.4479,280.8432,711.89,266.62" style="stroke:#FFFFFF;stroke-width:1.0;"/></g><!--reverse link Persona to Vendedor--><g id="link_Persona_Vendedor"><path codeLine="109" d="M673.8583,284.5881 C671.9083,308.0381 671.29,316.28 669.5,340.24 C662.85,429.4 656.16,535.19 653.15,583.81 " fill="none" id="Persona-backto-Vendedor" style="stroke:#FFFFFF;stroke-width:1.0;"/><polygon fill="none" points="675.35,266.65,667.879,284.0909,679.8377,285.0853,675.35,266.65" style="stroke:#FFFFFF;stroke-width:1.0;"/></g><!--reverse link Persona to Cliente--><g id="link_Persona_Cliente"><path codeLine="110" d="M530.3868,277.1206 C519.3768,286.4006 523,285.03 514.5,296.24 C503.57,310.65 497.42,329.61 493.95,346.37 " fill="none" id="Persona-backto-Cliente" style="stroke:#FFFFFF;stroke-width:1.0;"/><polygon fill="none" points="544.15,265.52,526.5199,272.5329,534.2537,281.7083,544.15,265.52" style="stroke:#FFFFFF;stroke-width:1.0;"/></g><!--link Persona to Menu--><g id="link_Persona_Menu"><path codeLine="112" d="M796.68,266.52 C820.44,287.17 842.24,311.91 855.5,340.24 C947.53,536.92 825.4821,800.1751 775.9721,893.0651 " fill="none" id="Persona-to-Menu" style="stroke:#FFFFFF;stroke-width:1.0;"/><polygon fill="#FFFFFF" points="773.15,898.36,780.9131,892.2991,775.5018,893.9476,773.8533,888.5363,773.15,898.36" style="stroke:#FFFFFF;stroke-width:1.0;"/></g><!--link Admin to Menu--><g id="link_Admin_Menu"><path codeLine="113" d="M761.82,433.74 C760.25,540.88 756.625,787.482 755.255,880.542 " fill="none" id="Admin-to-Menu" style="stroke:#FFFFFF;stroke-width:1.0;"/><polygon fill="none" points="754.99,898.54,761.2543,880.6303,749.2556,880.4536,754.99,898.54" style="stroke:#FFFFFF;stroke-width:1.0;"/></g><!--link Vendedor to Menu--><g id="link_Vendedor_Menu"><path codeLine="114" d="M660.1,639.33 C678.86,697.41 717.8671,818.1615 738.3371,881.5315 " fill="none" id="Vendedor-to-Menu" style="stroke:#FFFFFF;stroke-width:1.0;"/><polygon fill="none" points="743.87,898.66,744.0466,879.6872,732.6276,883.3758,743.87,898.66" style="stroke:#FFFFFF;stroke-width:1.0;"/></g><!--link Cliente to Menu--><g id="link_Cliente_Menu"><path codeLine="115" d="M507.53,427.31 C512.27,438.79 517.02,451.47 520.5,463.46 C552.3,572.91 516.13,613.2 565.5,715.92 C601.41,790.63 657.0747,847.4462 701.0447,886.3862 " fill="none" id="Cliente-to-Menu" style="stroke:#FFFFFF;stroke-width:1.0;"/><polygon fill="none" points="714.52,898.32,705.0226,881.8944,697.0667,890.878,714.52,898.32" style="stroke:#FFFFFF;stroke-width:1.0;"/></g><!--reverse link Oficina to Consulta--><g id="link_Oficina_Consulta"><path codeLine="117" d="M306.2862,433.1342 C307.1562,450.0542 308.01,458.92 310.5,477.46 C311.8,487.17 313.39,497.23 315.14,507.27 " fill="none" id="Oficina-backto-Consulta" style="stroke:#FFFFFF;stroke-width:1.0;"/><polygon fill="none" points="305.67,421.15,301.9834,427.3475,306.2862,433.1342,309.9728,426.9367,305.67,421.15" style="stroke:#FFFFFF;stroke-width:1.0;"/><text fill="#BBBBBB" font-family="Verdana" font-size="11" lengthAdjust="spacing" textLength="57" x="311.5" y="474.6704">Consultas</text><text fill="#BBBBBB" font-family="Verdana" font-size="11" lengthAdjust="spacing" textLength="6" x="307.1191" y="496.7134">*</text></g><!--reverse link Oficina to Vendedor--><g id="link_Oficina_Vendedor"><path codeLine="118" d="M365.6163,427.0256 C373.5763,431.5256 371.41,429.91 379.5,433.46 C423.55,452.79 439.41,444.21 483.5,463.46 C518.22,478.62 527.16,483.5 556.5,507.46 C584.8,530.56 612.55,562.03 630.68,584.13 " fill="none" id="Oficina-backto-Vendedor" style="stroke:#FFFFFF;stroke-width:1.0;"/><polygon fill="#FFFFFF" points="355.17,421.12,358.4246,427.5549,365.6163,427.0256,362.3616,420.5907,355.17,421.12" style="stroke:#FFFFFF;stroke-width:1.0;"/></g><!--reverse link Oficina to Auto--><g id="link_Oficina_Auto"><path codeLine="119" d="M235.5755,420.5793 C199.4355,440.6193 166.39,465.87 144.5,507.46 C99.28,593.37 96.11,703.19 103.67,789.54 " fill="none" id="Oficina-backto-Auto" style="stroke:#FFFFFF;stroke-width:1.0;"/><polygon fill="none" points="246.07,414.76,238.883,414.1715,235.5755,420.5793,242.7625,421.1678,246.07,414.76" style="stroke:#FFFFFF;stroke-width:1.0;"/><text fill="#BBBBBB" font-family="Verdana" font-size="11" lengthAdjust="spacing" textLength="32" x="145.5" y="615.9004">Autos</text><text fill="#BBBBBB" font-family="Verdana" font-size="11" lengthAdjust="spacing" textLength="6" x="96.1189" y="779.1582">*</text></g><!--reverse link Cliente to Consulta--><g id="link_Cliente_Consulta"><path codeLine="121" d="M442.3849,436.0782 C432.0949,447.3382 429.46,451.08 420.5,463.46 C410.61,477.13 400.97,492.08 391.98,507.06 " fill="none" id="Cliente-backto-Consulta" style="stroke:#FFFFFF;stroke-width:1.0;"/><polygon fill="none" points="450.48,427.22,443.4797,428.9507,442.3849,436.0782,449.3852,434.3475,450.48,427.22" style="stroke:#FFFFFF;stroke-width:1.0;"/><text fill="#BBBBBB" font-family="Verdana" font-size="11" lengthAdjust="spacing" textLength="57" x="421.5" y="474.6704">Consultas</text><text fill="#BBBBBB" font-family="Verdana" font-size="11" lengthAdjust="spacing" textLength="6" x="389.9214" y="496.8311">*</text></g><!--reverse link Consulta to Auto--><g id="link_Consulta_Auto"><path codeLine="123" d="M262.7201,726.2421 C247.3301,749.6121 237.33,764.79 221.1,789.44 " fill="none" id="Consulta-backto-Auto" style="stroke:#FFFFFF;stroke-width:1.0;"/><polygon fill="none" points="269.32,716.22,262.6794,719.0311,262.7201,726.2421,269.3607,723.431,269.32,716.22" style="stroke:#FFFFFF;stroke-width:1.0;"/><text fill="#BBBBBB" font-family="Verdana" font-size="11" lengthAdjust="spacing" textLength="32" x="246.5" y="757.1304">Autos</text><text fill="#BBBBBB" font-family="Verdana" font-size="11" lengthAdjust="spacing" textLength="6" x="220.0547" y="779.5172">*</text></g><!--SRC=[VLLBSjim3Dth5AnNTcejkjLqEfCwaswQfjFV7Y5fXrEAo92K5qbweAvxX5oiu4-YRCSRMte00V3X0NhZxsKlcPL2MEbSAy3-HWjc9vk6Qt2EtO0oJmrZRtjwO1tRenBDdsBTW8CRy5OzigScU4t0ydQhk3AmPb-bTHWUBWUFA_8AZdjfFoldGM0sk-KgHoSh1xi36_oFqUnV6pJkb0b0jeK2SuKP2LTebUYOCZuy6kplhEpOTohLx0AobVmUlW1NlPB6OyUkmCjW4CY7Fa7vi9VwvUyM3TRd9H6aQu2ZyHQSD0f6E1HRwgTWwuolOx8rcq7fVrMHhKDbCbvb2tkqogFh8gkPLDXPIGnT5-CoCZxnv82_PfqO-oMDa09jx3ebZ25dhHWhkXHzLWUtCZdDsYWriMdE67ww0QoQDpb4AZMSI4cX8WEaLsdtG0HiqBX1Ut01VY0YYQIw4JqAgN7U6ersvWAMGmq8vHxGg3kbbG2IpKT47SDRoHMIcRolDKBK0mVZWzidSAZfMfK9qn1SSZ-0diaWCPg70K8QUpLBkaoQ2B-hiG2Q0Sq7JLCG2_c17dHGqchAMOrMuZstEUlaT4kJNYEDjboZDbAsE7odRF5WhyxOy9I9XiFGVIrbpAlYrYgQOxhGKTTBYrbiFK-3q9M92DW-AwORzLlHtx6S8Mu1Gu_uBSbd6lEjCaTOQUoL2ZhBqvyaS1qAxTYsqW2NcZYVj98LMa5nZwAZczjHjCky3mv7e3WiyoNJ-YoR8gkYdB1XUJtMX_93vGDSFlYpBXFVcQv4jr0KdgkNVwQUaECbIAU9N2_jbbAn6sc6U3xeCRpKG-wa3Y7fshCHRyBNXhLjzLrfckeRitYtk6ZRnSKYBfukxHztqYEobKJ_YiFjWJPcRWoJq-P0QgvfSh_O-sSgD5OmXqRzpT0YrH5jsm-HeoQ6eDVd_5xELr0-N25DwL2fCpUpteR5vQ8kwk1SpTAOvapCPfp4um3_0G00]--></g></svg>