<svg xmlns="http://www.w3.org/2000/svg" xmlns:xlink="http://www.w3.org/1999/xlink" contentStyleType="text/css" height="1538px" preserveAspectRatio="none" style="width:339px;height:1538px;background:#FFFFFF;" version="1.1" viewBox="0 0 339 1538" width="339px" zoomAndPan="magnify"><defs/><g><!--cluster RentACar--><g id="cluster_RentACar"><rect fill="#808080" height="1525" rx="2.5" ry="2.5" style="stroke:#181818;stroke-width:1.0;" width="215.77" x="118" y="7"/><text fill="#FFFFFF" font-family="sans-serif" font-size="14" font-weight="bold" lengthAdjust="spacing" textLength="74" x="188.885" y="21.9951">RentACar</text></g><g id="elem_Login"><ellipse cx="225.8931" cy="812.9985" fill="#000000" rx="37.7231" ry="14.5485" style="stroke:#FFFFFF;stroke-width:2.0;"/><text fill="#FFFFFF" font-family="sans-serif" font-size="14" lengthAdjust="spacing" textLength="37" x="205.7816" y="816.3812">Login</text></g><g id="elem_Logout"><ellipse cx="225.8936" cy="538.9978" fill="#000000" rx="45.8836" ry="14.6478" style="stroke:#FFFFFF;stroke-width:2.0;"/><text fill="#FFFFFF" font-family="sans-serif" font-size="14" lengthAdjust="spacing" textLength="48" x="198.8936" y="542.7454">Logout</text></g><g id="elem_AFavoritos"><ellipse cx="225.8907" cy="334.0021" fill="#FF00FF" rx="80.6107" ry="18.5221" style="stroke:#000000;stroke-width:2.0;"/><text fill="#000000" font-family="sans-serif" font-size="14" lengthAdjust="spacing" textLength="120" x="164.4526" y="337.3148">Agregar a favorito</text></g><g id="elem_EFavoritos"><ellipse cx="225.8863" cy="260.9953" fill="#FF00FF" rx="84.4263" ry="19.2853" style="stroke:#000000;stroke-width:2.0;"/><text fill="#000000" font-family="sans-serif" font-size="14" lengthAdjust="spacing" textLength="129" x="161.265" y="263.8839">Eliminar de favorito</text></g><g id="elem_RetAuto"><ellipse cx="225.89" cy="191.004" fill="#FF00FF" rx="65.42" ry="15.484" style="stroke:#000000;stroke-width:2.0;"/><text fill="#000000" font-family="sans-serif" font-size="14" lengthAdjust="spacing" textLength="80" x="182.89" y="194.7516">Retirar auto</text></g><g id="elem_DevAuto"><ellipse cx="225.8949" cy="124.001" fill="#FF00FF" rx="70.8049" ry="16.561" style="stroke:#000000;stroke-width:2.0;"/><text fill="#000000" font-family="sans-serif" font-size="14" lengthAdjust="spacing" textLength="95" x="175.3949" y="127.7485">Devolver auto</text></g><g id="elem_ListarAutos"><ellipse cx="225.8866" cy="56.9953" fill="#FF00FF" rx="65.0766" ry="15.4153" style="stroke:#000000;stroke-width:2.0;"/><text fill="#000000" font-family="sans-serif" font-size="14" lengthAdjust="spacing" textLength="79" x="183.3866" y="60.7429">Listar autos</text></g><g id="elem_Reservar"><ellipse cx="225.8852" cy="403.999" fill="#0000FF" rx="69.6952" ry="16.339" style="stroke:#000000;stroke-width:2.0;"/><text fill="#000000" font-family="sans-serif" font-size="14" lengthAdjust="spacing" textLength="92" x="176.8852" y="407.7466">Crear reserva</text></g><g id="elem_ListarReservas"><ellipse cx="225.8868" cy="471.9974" fill="#0000FF" rx="72.6868" ry="16.9374" style="stroke:#000000;stroke-width:2.0;"/><text fill="#000000" font-family="sans-serif" font-size="14" lengthAdjust="spacing" textLength="100" x="172.8868" y="475.7449">ListarReservas</text></g><g id="elem_AcepReservar"><ellipse cx="225.8854" cy="605.9951" fill="#00FFFF" rx="75.7754" ry="17.5551" style="stroke:#000000;stroke-width:2.0;"/><text fill="#000000" font-family="sans-serif" font-size="14" lengthAdjust="spacing" textLength="108" x="168.8854" y="609.7426">Aceptar reserva</text></g><g id="elem_RecReservar"><ellipse cx="225.8907" cy="745.0021" fill="#00FFFF" rx="80.6107" ry="18.5221" style="stroke:#000000;stroke-width:2.0;"/><text fill="#000000" font-family="sans-serif" font-size="14" lengthAdjust="spacing" textLength="120" x="164.4526" y="748.3148">Rechazar reserva</text></g><g id="elem_EntregarAuto"><ellipse cx="225.8949" cy="675.001" fill="#00FFFF" rx="70.8049" ry="16.561" style="stroke:#000000;stroke-width:2.0;"/><text fill="#000000" font-family="sans-serif" font-size="14" lengthAdjust="spacing" textLength="95" x="175.3949" y="678.7485">Entregar Auto</text></g><g id="elem_CrearAuto"><ellipse cx="225.8949" cy="1352.997" fill="#FFFF00" rx="62.7349" ry="14.947" style="stroke:#000000;stroke-width:2.0;"/><text fill="#000000" font-family="sans-serif" font-size="14" lengthAdjust="spacing" textLength="72" x="186.8949" y="1356.7445">Crear auto</text></g><g id="elem_EliminarAuto"><ellipse cx="225.89" cy="1286.998" fill="#FFFF00" rx="68.24" ry="16.048" style="stroke:#000000;stroke-width:2.0;"/><text fill="#000000" font-family="sans-serif" font-size="14" lengthAdjust="spacing" textLength="88" x="178.89" y="1290.7456">Eliminar auto</text></g><g id="elem_ListarClientes"><ellipse cx="225.8933" cy="1218.9967" fill="#FFFF00" rx="70.4333" ry="16.4867" style="stroke:#000000;stroke-width:2.0;"/><text fill="#000000" font-family="sans-serif" font-size="14" lengthAdjust="spacing" textLength="94" x="175.8933" y="1222.7442">Listar clientes</text></g><g id="elem_CrearCliente"><ellipse cx="225.8907" cy="1151.9961" fill="#FFFF00" rx="67.8807" ry="15.9761" style="stroke:#000000;stroke-width:2.0;"/><text fill="#000000" font-family="sans-serif" font-size="14" lengthAdjust="spacing" textLength="87" x="179.3907" y="1155.7437">Crear cliente</text></g><g id="elem_EliminarCliente"><ellipse cx="225.8943" cy="1083.9969" fill="#FFFF00" rx="73.8343" ry="17.1669" style="stroke:#000000;stroke-width:2.0;"/><text fill="#000000" font-family="sans-serif" font-size="14" lengthAdjust="spacing" textLength="103" x="171.3943" y="1087.7444">Eliminar cliente</text></g><g id="elem_ListarOficina"><ellipse cx="225.8852" cy="1014.999" fill="#FFFF00" rx="69.6952" ry="16.339" style="stroke:#000000;stroke-width:2.0;"/><text fill="#000000" font-family="sans-serif" font-size="14" lengthAdjust="spacing" textLength="92" x="176.8852" y="1018.7466">Listar oficinas</text></g><g id="elem_CrearOficina"><ellipse cx="225.8878" cy="948.0036" fill="#FFFF00" rx="67.1678" ry="15.8336" style="stroke:#000000;stroke-width:2.0;"/><text fill="#000000" font-family="sans-serif" font-size="14" lengthAdjust="spacing" textLength="85" x="180.3878" y="951.7511">Crear oficina</text></g><g id="elem_EliminarOficina"><ellipse cx="225.8878" cy="880.0036" fill="#FFFF00" rx="73.0678" ry="17.0136" style="stroke:#000000;stroke-width:2.0;"/><text fill="#000000" font-family="sans-serif" font-size="14" lengthAdjust="spacing" textLength="101" x="172.3878" y="883.7511">Eliminar oficina</text></g><g id="elem_AsignarAutoAOfi"><ellipse cx="225.8872" cy="1494.9974" fill="#FFFF00" rx="91.8872" ry="20.7774" style="stroke:#000000;stroke-width:2.0;"/><text fill="#000000" font-family="sans-serif" font-size="14" lengthAdjust="spacing" textLength="146" x="152.8872" y="1497.8441">Asignar auto a oficina</text></g><g id="elem_EliminarReserva"><ellipse cx="225.8932" cy="1421.0006" fill="#FFFF00" rx="77.7532" ry="17.9506" style="stroke:#000000;stroke-width:2.0;"/><text fill="#000000" font-family="sans-serif" font-size="14" lengthAdjust="spacing" textLength="113" x="166.8394" y="1424.6309">Eliminar Reserva</text></g><!--entity cl--><g id="elem_cl"><ellipse cx="40" cy="314.35" fill="#FF00FF" rx="4.5" ry="4.5" style="stroke:#000000;stroke-width:2.0;"/><path d="M27.5,320.85 L27.5,325.85 L37,325.85 L37,328.1074 L27.5,337.6074 L31.7426,341.85 L40,333.5926 L48.2574,341.85 L52.5,337.6074 L43,328.1074 L43,325.85 L52.5,325.85 L52.5,320.85 L27.5,320.85 " fill="#FF00FF" style="stroke:#000000;stroke-width:2.0;"/><text fill="#000000" font-family="sans-serif" font-size="14" lengthAdjust="spacing" textLength="48" x="16" y="356.8451">Cliente</text></g><!--entity ve--><g id="elem_ve"><ellipse cx="40" cy="586.35" fill="#00FFFF" rx="4.5" ry="4.5" style="stroke:#000000;stroke-width:2.0;"/><path d="M27.5,592.85 L27.5,597.85 L37,597.85 L37,600.1074 L27.5,609.6074 L31.7426,613.85 L40,605.5926 L48.2574,613.85 L52.5,609.6074 L43,600.1074 L43,597.85 L52.5,597.85 L52.5,592.85 L27.5,592.85 " fill="#00FFFF" style="stroke:#000000;stroke-width:2.0;"/><text fill="#000000" font-family="sans-serif" font-size="14" lengthAdjust="spacing" textLength="68" x="6" y="628.8451">Vendedor</text></g><!--entity ad--><g id="elem_ad"><ellipse cx="40" cy="1098.35" fill="#FFFF00" rx="4.5" ry="4.5" style="stroke:#000000;stroke-width:2.0;"/><path d="M27.5,1104.85 L27.5,1109.85 L37,1109.85 L37,1112.1074 L27.5,1121.6074 L31.7426,1125.85 L40,1117.5926 L48.2574,1125.85 L52.5,1121.6074 L43,1112.1074 L43,1109.85 L52.5,1109.85 L52.5,1104.85 L27.5,1104.85 " fill="#FFFF00" style="stroke:#000000;stroke-width:2.0;"/><text fill="#000000" font-family="sans-serif" font-size="14" lengthAdjust="spacing" textLength="43" x="18.5" y="1140.8451">Admin</text></g><!--link cl to Login--><g id="link_cl_Login"><path d="M44.87,360.36 C58.91,455.67 106.45,777 110,781 C129.38,802.83 156.2944,809.7791 181.9244,812.0991 " fill="none" id="cl-to-Login" style="stroke:#FF00FF;stroke-width:2.0;"/><polygon fill="#FF00FF" points="187.9,812.64,179.2972,807.8449,182.9204,812.1892,178.576,815.8124,187.9,812.64" style="stroke:#FF00FF;stroke-width:2.0;"/></g><!--link cl to Logout--><g id="link_cl_Logout"><path d="M44.32,360.53 C50.46,398.3 67.14,467.29 110,506 C129.33,523.46 151.4005,530.7505 174.9105,534.6405 " fill="none" id="cl-to-Logout" style="stroke:#FF00FF;stroke-width:2.0;"/><polygon fill="#FF00FF" points="180.83,535.62,172.6037,530.2045,175.8971,534.8038,171.2978,538.0972,180.83,535.62" style="stroke:#FF00FF;stroke-width:2.0;"/></g><!--link cl to ListarAutos--><g id="link_cl_ListarAutos"><path d="M40.59,307.49 C41.32,257.75 50.2,150.05 110,90 C124.5,75.44 139.1193,68.5832 158.7693,63.9632 " fill="none" id="cl-to-ListarAutos" style="stroke:#FF00FF;stroke-width:2.0;"/><polygon fill="#FF00FF" points="164.61,62.59,154.9334,60.756,159.7427,63.7344,156.7644,68.5437,164.61,62.59" style="stroke:#FF00FF;stroke-width:2.0;"/></g><!--link cl to Reservar--><g id="link_cl_Reservar"><path d="M64.41,347.66 C77.52,354.94 94.34,363.67 110,370 C131.5,378.7 150.2868,384.6719 171.1668,390.4419 " fill="none" id="cl-to-Reservar" style="stroke:#FF00FF;stroke-width:2.0;"/><polygon fill="#FF00FF" points="176.95,392.04,169.3406,385.7873,172.1306,390.7082,167.2097,393.4983,176.95,392.04" style="stroke:#FF00FF;stroke-width:2.0;"/></g><!--link cl to AFavoritos--><g id="link_cl_AFavoritos"><path d="M64.29,334 C84.68,334 109.54,334 138.78,334 " fill="none" id="cl-to-AFavoritos" style="stroke:#FF00FF;stroke-width:2.0;"/><polygon fill="#FF00FF" points="144.78,334,135.78,330,139.78,334,135.78,338,144.78,334" style="stroke:#FF00FF;stroke-width:2.0;"/></g><!--link cl to EFavoritos--><g id="link_cl_EFavoritos"><path d="M64.47,320.49 C77.6,313.25 94.42,304.52 110,298 C129.72,289.75 146.2303,283.9805 165.8603,277.8805 " fill="none" id="cl-to-EFavoritos" style="stroke:#FF00FF;stroke-width:2.0;"/><polygon fill="#FF00FF" points="171.59,276.1,161.8084,274.9509,166.8152,277.5838,164.1824,282.5906,171.59,276.1" style="stroke:#FF00FF;stroke-width:2.0;"/></g><!--link cl to RetAuto--><g id="link_cl_RetAuto"><path d="M51.08,307.4 C61.93,282.3 81.54,245.42 110,224 C126.83,211.33 142.5383,204.931 162.4183,200.121 " fill="none" id="cl-to-RetAuto" style="stroke:#FF00FF;stroke-width:2.0;"/><polygon fill="#FF00FF" points="168.25,198.71,158.5617,196.9387,163.3902,199.8858,160.4431,204.7143,168.25,198.71" style="stroke:#FF00FF;stroke-width:2.0;"/></g><!--link cl to DevAuto--><g id="link_cl_DevAuto"><path d="M44.08,307.56 C49.95,269.12 66.35,198.05 110,158 C124.41,144.78 137.9202,138.2169 156.6002,133.2669 " fill="none" id="cl-to-DevAuto" style="stroke:#FF00FF;stroke-width:2.0;"/><polygon fill="#FF00FF" points="162.4,131.73,152.6757,130.1688,157.5668,133.0107,154.7249,137.9019,162.4,131.73" style="stroke:#FF00FF;stroke-width:2.0;"/></g><!--link cl to ListarReservas--><g id="link_cl_ListarReservas"><path d="M52.13,360.47 C63.39,384.13 82.99,418.04 110,438 C125.89,449.74 140.0168,455.8883 158.7868,460.9483 " fill="none" id="cl-to-ListarReservas" style="stroke:#FF00FF;stroke-width:2.0;"/><polygon fill="#FF00FF" points="164.58,462.51,156.9314,456.3053,159.7523,461.2086,154.8491,464.0295,164.58,462.51" style="stroke:#FF00FF;stroke-width:2.0;"/></g><!--link ve to Login--><g id="link_ve_Login"><path d="M44.04,632.39 C49.87,670.73 66.21,741.54 110,781 C131.38,800.27 157.456,807.2987 182.276,810.3887 " fill="none" id="ve-to-Login" style="stroke:#00FFFF;stroke-width:2.0;"/><polygon fill="#00FFFF" points="188.23,811.13,179.7931,806.0488,183.2683,810.5123,178.8048,813.9875,188.23,811.13" style="stroke:#00FFFF;stroke-width:2.0;"/></g><!--link ve to Logout--><g id="link_ve_Logout"><path d="M74.43,587.37 C85.54,581.63 98.11,575.62 110,571 C135.28,561.18 158.9447,554.4672 181.7247,548.8472 " fill="none" id="ve-to-Logout" style="stroke:#00FFFF;stroke-width:2.0;"/><polygon fill="#00FFFF" points="187.55,547.41,177.8539,545.6822,182.6956,548.6076,179.7701,553.4493,187.55,547.41" style="stroke:#00FFFF;stroke-width:2.0;"/></g><!--link ve to Reservar--><g id="link_ve_Reservar"><path d="M44.66,579.5 C51.16,542.52 68.23,475.72 110,438 C124.74,424.69 138.6742,418.0943 157.6142,413.1543 " fill="none" id="ve-to-Reservar" style="stroke:#00FFFF;stroke-width:2.0;"/><polygon fill="#00FFFF" points="163.42,411.64,153.7018,410.0409,158.5819,412.9019,155.7209,417.7819,163.42,411.64" style="stroke:#00FFFF;stroke-width:2.0;"/></g><!--link ve to ListarReservas--><g id="link_ve_ListarReservas"><path d="M53.16,579.53 C64.75,557.12 84.25,525.73 110,507 C126.36,495.1 141.0238,488.7874 160.1238,483.5474 " fill="none" id="ve-to-ListarReservas" style="stroke:#00FFFF;stroke-width:2.0;"/><polygon fill="#00FFFF" points="165.91,481.96,156.1724,480.4837,161.0882,483.2828,158.289,488.1986,165.91,481.96" style="stroke:#00FFFF;stroke-width:2.0;"/></g><!--link ve to AcepReservar--><g id="link_ve_AcepReservar"><path d="M74.3,606 C95.41,606 117.61,606 143.89,606 " fill="none" id="ve-to-AcepReservar" style="stroke:#00FFFF;stroke-width:2.0;"/><polygon fill="#00FFFF" points="149.89,606,140.89,602,144.89,606,140.89,610,149.89,606" style="stroke:#00FFFF;stroke-width:2.0;"/></g><!--link ve to RecReservar--><g id="link_ve_RecReservar"><path d="M52.49,632.57 C63.88,655.91 83.46,689.15 110,709 C125.07,720.27 137.9936,726.3341 155.8736,731.7041 " fill="none" id="ve-to-RecReservar" style="stroke:#00FFFF;stroke-width:2.0;"/><polygon fill="#00FFFF" points="161.62,733.43,154.1509,727.0103,156.8313,731.9918,151.8498,734.6722,161.62,733.43" style="stroke:#00FFFF;stroke-width:2.0;"/></g><!--link ve to EntregarAuto--><g id="link_ve_EntregarAuto"><path d="M74.48,624.52 C85.58,630.25 98.14,636.28 110,641 C131.36,649.5 149.9001,655.38 170.6501,661.16 " fill="none" id="ve-to-EntregarAuto" style="stroke:#00FFFF;stroke-width:2.0;"/><polygon fill="#00FFFF" points="176.43,662.77,168.8334,656.5017,171.6134,661.4283,166.6867,664.2083,176.43,662.77" style="stroke:#00FFFF;stroke-width:2.0;"/></g><!--link ad to Login--><g id="link_ad_Login"><path d="M44.31,1091.4 C52.49,1029.88 75.51,880.33 110,845 C130.25,824.26 156.7427,817.256 182.0027,814.606 " fill="none" id="ad-to-Login" style="stroke:#FFFF00;stroke-width:2.0;"/><polygon fill="#FFFF00" points="187.97,813.98,178.6018,810.9409,182.9973,814.5017,179.4365,818.8972,187.97,813.98" style="stroke:#FFFF00;stroke-width:2.0;"/></g><!--link ad to Logout--><g id="link_ad_Logout"><path d="M40.61,1091.66 C39.71,993.45 41.58,650.24 110,571 C127.19,551.1 149.6466,543.816 173.9066,540.776 " fill="none" id="ad-to-Logout" style="stroke:#FFFF00;stroke-width:2.0;"/><polygon fill="#FFFF00" points="179.86,540.03,170.4325,537.1801,174.8988,540.6517,171.4272,545.118,179.86,540.03" style="stroke:#FFFF00;stroke-width:2.0;"/></g><!--link ad to CrearAuto--><g id="link_ad_CrearAuto"><path d="M42.37,1144.56 C46.06,1187.82 59.69,1273.43 110,1321 C125.27,1335.44 140.6306,1342.1689 160.6906,1346.5889 " fill="none" id="ad-to-CrearAuto" style="stroke:#FFFF00;stroke-width:2.0;"/><polygon fill="#FFFF00" points="166.55,1347.88,158.6215,1342.0371,161.6671,1346.8041,156.9001,1349.8497,166.55,1347.88" style="stroke:#FFFF00;stroke-width:2.0;"/></g><!--link ad to EliminarAuto--><g id="link_ad_EliminarAuto"><path d="M47.71,1144.6 C56.78,1175.14 75.88,1224.67 110,1253 C125.76,1266.09 140.5855,1272.6595 160.0255,1277.6095 " fill="none" id="ad-to-EliminarAuto" style="stroke:#FFFF00;stroke-width:2.0;"/><polygon fill="#FFFF00" points="165.84,1279.09,158.1053,1272.9929,160.9946,1277.8562,156.1313,1280.7455,165.84,1279.09" style="stroke:#FFFF00;stroke-width:2.0;"/></g><!--link ad to ListarClientes--><g id="link_ad_ListarClientes"><path d="M61.96,1143.74 C74.57,1157.72 91.7,1174.29 110,1185 C128.31,1195.71 144.4699,1201.7442 164.2599,1206.9842 " fill="none" id="ad-to-ListarClientes" style="stroke:#FFFF00;stroke-width:2.0;"/><polygon fill="#FFFF00" points="170.06,1208.52,162.3837,1202.3496,165.2266,1207.2402,160.336,1210.0831,170.06,1208.52" style="stroke:#FFFF00;stroke-width:2.0;"/></g><!--link ad to CrearCliente--><g id="link_ad_CrearCliente"><path d="M61.74,1121.83 C88.13,1126.71 128.8002,1134.2283 165.4402,1141.0083 " fill="none" id="ad-to-CrearCliente" style="stroke:#FFFF00;stroke-width:2.0;"/><polygon fill="#FFFF00" points="171.34,1142.1,163.2181,1136.5292,166.4235,1141.1902,161.7624,1144.3956,171.34,1142.1" style="stroke:#FFFF00;stroke-width:2.0;"/></g><!--link ad to EliminarCliente--><g id="link_ad_EliminarCliente"><path d="M61.74,1114.17 C87.1,1109.48 125.18,1102.4309 161.09,1095.7909 " fill="none" id="ad-to-EliminarCliente" style="stroke:#FFFF00;stroke-width:2.0;"/><polygon fill="#FFFF00" points="166.99,1094.7,157.4127,1092.4031,162.0733,1095.6091,158.8673,1100.2697,166.99,1094.7" style="stroke:#FFFF00;stroke-width:2.0;"/></g><!--link ad to ListarOficina--><g id="link_ad_ListarOficina"><path d="M61.82,1091.47 C74.38,1077.07 91.51,1060 110,1049 C128.32,1038.1 144.5867,1032.0038 164.4667,1026.7838 " fill="none" id="ad-to-ListarOficina" style="stroke:#FFFF00;stroke-width:2.0;"/><polygon fill="#FFFF00" points="170.27,1025.26,160.5492,1023.6768,165.4339,1026.5298,162.5809,1031.4145,170.27,1025.26" style="stroke:#FFFF00;stroke-width:2.0;"/></g><!--link ad to CrearOficina--><g id="link_ad_CrearOficina"><path d="M47.4,1091.51 C56.26,1060.52 75.24,1009.8 110,981 C125.66,968.02 140.3453,961.5896 159.6853,956.8096 " fill="none" id="ad-to-CrearOficina" style="stroke:#FFFF00;stroke-width:2.0;"/><polygon fill="#FFFF00" points="165.51,955.37,155.8132,953.6463,160.6561,956.5697,157.7326,961.4126,165.51,955.37" style="stroke:#FFFF00;stroke-width:2.0;"/></g><!--link ad to EliminarOficina--><g id="link_ad_EliminarOficina"><path d="M42.5,1091.57 C46.38,1048.5 60.27,963.17 110,915 C123.85,901.58 136.9194,894.8976 155.3294,889.7776 " fill="none" id="ad-to-EliminarOficina" style="stroke:#FFFF00;stroke-width:2.0;"/><polygon fill="#FFFF00" points="161.11,888.17,151.3673,886.7277,156.2928,889.5097,153.5108,894.4352,161.11,888.17" style="stroke:#FFFF00;stroke-width:2.0;"/></g><!--link ad to AsignarAutoAOfi--><g id="link_ad_AsignarAutoAOfi"><path d="M43.05,1144.52 C49.05,1215.81 68.86,1409.33 110,1456 C120.86,1468.33 130.1479,1474.6644 145.6279,1480.4344 " fill="none" id="ad-to-AsignarAutoAOfi" style="stroke:#FFFF00;stroke-width:2.0;"/><polygon fill="#FFFF00" points="151.25,1482.53,144.2138,1475.6385,146.5649,1480.7837,141.4197,1483.1347,151.25,1482.53" style="stroke:#FFFF00;stroke-width:2.0;"/></g><!--link ad to EliminarReserva--><g id="link_ad_EliminarReserva"><path d="M44.53,1144.4 C53.1,1204.7 76.77,1350.04 110,1385 C122.67,1398.33 134.4668,1405.0133 152.0268,1410.3233 " fill="none" id="ad-to-EliminarReserva" style="stroke:#FFFF00;stroke-width:2.0;"/><polygon fill="#FFFF00" points="157.77,1412.06,150.313,1405.6262,152.984,1410.6128,147.9975,1413.2837,157.77,1412.06" style="stroke:#FFFF00;stroke-width:2.0;"/></g><!--SRC=[fPRFZfim4CRlF8KLpji7w4gLK9ggXvKgfLBlNZCXrZfuPJjiqwhlti5_m1127BYPuVFFCxRv1W47GumaYbT7GqgkW1akwopJRxn-fugU26L6gf_c8e1ybqB8Zoop8RBP2WwrWGsXcZ11I7wY5GRei-0rV7uLbBtPuQTNASfd0x-D2uRvlw0kePJA0XeWERlGEdLoKPvuRMVIakGNQ3ExEpVBsW9fNM4nUqors595yah1nQa-Zjp0tuoGimP6DP3DYwpyCdP4yfxkrEE5R714a6SJ43XSm2WmnGfJfUH06wcuaPPNVFDFEdtl8-fESDn3n9OmvExMSVTWk6gpFNiU1WeSBu9zXKQA1Y8QHXRJNhWsFZFjZiG6MjwoMhSAaAT0WsgeBzQELNlCPtWyEJy_JY-47aSM3DxDAC4srYUPzCqD3fSTwP-hcjbougusxdONuOH3n1tpepnt9DrriO-EbEWIKvz8XmkHfKH_0vdpplYKlPtg9LHNCuiCsKOySbNbCJG4Lt1z_VB06PBY-d-uqFBoFRClVmMnAp-6Xk0ARg5v5UuJsdbCzw_QYrNW2gkotaSVPmZwM3Bt7xPBREjFJrz2xxCpOfEqSoAHxMvtLB7XpajxIvdNnMrmNhbBLdOjQrxMzQAKediRlw7Ey2TelDsT-pb9h-ZtUbeoshqRdAd4fgN3jZ6xC4lI3Lr-IfZXhzruFwBBwqIzfj-HMwAe5ypgXYO_l-x8k- -ltvbdKWffwf63tayYJNfbUBFgAmDBOdUsDAd-3m00]--></g></svg>