<svg xmlns="http://www.w3.org/2000/svg" xmlns:xlink="http://www.w3.org/1999/xlink" contentStyleType="text/css" height="1538px" preserveAspectRatio="none" style="width:339px;height:1538px;background:#DDDDDD;" version="1.1" viewBox="0 0 339 1538" width="339px" zoomAndPan="magnify"><defs/><g><rect fill="#DDDDDD" height="1538" style="stroke:none;stroke-width:1.0;" width="339" x="0" y="0"/><!--cluster RentACar--><g id="cluster_RentACar"><rect fill="none" height="1525" rx="3.5" ry="3.5" style="stroke:#454645;stroke-width:1.0;" width="215.77" x="118" y="7"/><text fill="#000000" font-family="sans-serif" font-size="14" font-weight="bold" lengthAdjust="spacing" textLength="74" x="188.885" y="21.9951">RentACar</text></g><g id="elem_Login"><ellipse cx="225.8931" cy="812.9985" fill="#F1F1F1" rx="37.7231" ry="14.5485" style="stroke:#181818;stroke-width:0.5;"/><text fill="#000000" font-family="sans-serif" font-size="14" lengthAdjust="spacing" textLength="37" x="205.7816" y="816.3812">Login</text></g><g id="elem_Logout"><ellipse cx="225.8936" cy="538.9978" fill="#F1F1F1" rx="45.8836" ry="14.6478" style="stroke:#181818;stroke-width:0.5;"/><text fill="#000000" font-family="sans-serif" font-size="14" lengthAdjust="spacing" textLength="48" x="198.8936" y="542.7454">Logout</text></g><g id="elem_AFavoritos"><ellipse cx="225.8907" cy="334.0021" fill="#F1F1F1" rx="80.6107" ry="18.5221" style="stroke:#181818;stroke-width:0.5;"/><text fill="#000000" font-family="sans-serif" font-size="14" lengthAdjust="spacing" textLength="120" x="164.4526" y="337.3148">Agregar a favorito</text></g><g id="elem_EFavoritos"><ellipse cx="225.8863" cy="260.9953" fill="#F1F1F1" rx="84.4263" ry="19.2853" style="stroke:#181818;stroke-width:0.5;"/><text fill="#000000" font-family="sans-serif" font-size="14" lengthAdjust="spacing" textLength="129" x="161.265" y="263.8839">Eliminar de favorito</text></g><g id="elem_RetAuto"><ellipse cx="225.89" cy="191.004" fill="#F1F1F1" rx="65.42" ry="15.484" style="stroke:#181818;stroke-width:0.5;"/><text fill="#000000" font-family="sans-serif" font-size="14" lengthAdjust="spacing" textLength="80" x="182.89" y="194.7516">Retirar auto</text></g><g id="elem_DevAuto"><ellipse cx="225.8949" cy="124.001" fill="#F1F1F1" rx="70.8049" ry="16.561" style="stroke:#181818;stroke-width:0.5;"/><text fill="#000000" font-family="sans-serif" font-size="14" lengthAdjust="spacing" textLength="95" x="175.3949" y="127.7485">Devolver auto</text></g><g id="elem_ListarAutos"><ellipse cx="225.8866" cy="56.9953" fill="#F1F1F1" rx="65.0766" ry="15.4153" style="stroke:#181818;stroke-width:0.5;"/><text fill="#000000" font-family="sans-serif" font-size="14" lengthAdjust="spacing" textLength="79" x="183.3866" y="60.7429">Listar autos</text></g><g id="elem_Reservar"><ellipse cx="225.8852" cy="403.999" fill="#F1F1F1" rx="69.6952" ry="16.339" style="stroke:#181818;stroke-width:0.5;"/><text fill="#000000" font-family="sans-serif" font-size="14" lengthAdjust="spacing" textLength="92" x="176.8852" y="407.7466">Crear reserva</text></g><g id="elem_ListarReservas"><ellipse cx="225.8868" cy="471.9974" fill="#F1F1F1" rx="72.6868" ry="16.9374" style="stroke:#181818;stroke-width:0.5;"/><text fill="#000000" font-family="sans-serif" font-size="14" lengthAdjust="spacing" textLength="100" x="172.8868" y="475.7449">ListarReservas</text></g><g id="elem_AcepReservar"><ellipse cx="225.8854" cy="605.9951" fill="#F1F1F1" rx="75.7754" ry="17.5551" style="stroke:#181818;stroke-width:0.5;"/><text fill="#000000" font-family="sans-serif" font-size="14" lengthAdjust="spacing" textLength="108" x="168.8854" y="609.7426">Aceptar reserva</text></g><g id="elem_RecReservar"><ellipse cx="225.8907" cy="745.0021" fill="#F1F1F1" rx="80.6107" ry="18.5221" style="stroke:#181818;stroke-width:0.5;"/><text fill="#000000" font-family="sans-serif" font-size="14" lengthAdjust="spacing" textLength="120" x="164.4526" y="748.3148">Rechazar reserva</text></g><g id="elem_EntregarAuto"><ellipse cx="225.8949" cy="675.001" fill="#F1F1F1" rx="70.8049" ry="16.561" style="stroke:#181818;stroke-width:0.5;"/><text fill="#000000" font-family="sans-serif" font-size="14" lengthAdjust="spacing" textLength="95" x="175.3949" y="678.7485">Entregar Auto</text></g><g id="elem_CrearAuto"><ellipse cx="225.8949" cy="1352.997" fill="#F1F1F1" rx="62.7349" ry="14.947" style="stroke:#181818;stroke-width:0.5;"/><text fill="#000000" font-family="sans-serif" font-size="14" lengthAdjust="spacing" textLength="72" x="186.8949" y="1356.7445">Crear auto</text></g><g id="elem_EliminarAuto"><ellipse cx="225.89" cy="1286.998" fill="#F1F1F1" rx="68.24" ry="16.048" style="stroke:#181818;stroke-width:0.5;"/><text fill="#000000" font-family="sans-serif" font-size="14" lengthAdjust="spacing" textLength="88" x="178.89" y="1290.7456">Eliminar auto</text></g><g id="elem_ListarClientes"><ellipse cx="225.8933" cy="1218.9967" fill="#F1F1F1" rx="70.4333" ry="16.4867" style="stroke:#181818;stroke-width:0.5;"/><text fill="#000000" font-family="sans-serif" font-size="14" lengthAdjust="spacing" textLength="94" x="175.8933" y="1222.7442">Listar clientes</text></g><g id="elem_CrearCliente"><ellipse cx="225.8907" cy="1151.9961" fill="#F1F1F1" rx="67.8807" ry="15.9761" style="stroke:#181818;stroke-width:0.5;"/><text fill="#000000" font-family="sans-serif" font-size="14" lengthAdjust="spacing" textLength="87" x="179.3907" y="1155.7437">Crear cliente</text></g><g id="elem_EliminarCliente"><ellipse cx="225.8943" cy="1083.9969" fill="#F1F1F1" rx="73.8343" ry="17.1669" style="stroke:#181818;stroke-width:0.5;"/><text fill="#000000" font-family="sans-serif" font-size="14" lengthAdjust="spacing" textLength="103" x="171.3943" y="1087.7444">Eliminar cliente</text></g><g id="elem_ListarOficina"><ellipse cx="225.8852" cy="1014.999" fill="#F1F1F1" rx="69.6952" ry="16.339" style="stroke:#181818;stroke-width:0.5;"/><text fill="#000000" font-family="sans-serif" font-size="14" lengthAdjust="spacing" textLength="92" x="176.8852" y="1018.7466">Listar oficinas</text></g><g id="elem_CrearOficina"><ellipse cx="225.8878" cy="948.0036" fill="#F1F1F1" rx="67.1678" ry="15.8336" style="stroke:#181818;stroke-width:0.5;"/><text fill="#000000" font-family="sans-serif" font-size="14" lengthAdjust="spacing" textLength="85" x="180.3878" y="951.7511">Crear oficina</text></g><g id="elem_EliminarOficina"><ellipse cx="225.8878" cy="880.0036" fill="#F1F1F1" rx="73.0678" ry="17.0136" style="stroke:#181818;stroke-width:0.5;"/><text fill="#000000" font-family="sans-serif" font-size="14" lengthAdjust="spacing" textLength="101" x="172.3878" y="883.7511">Eliminar oficina</text></g><g id="elem_AsignarAutoAOfi"><ellipse cx="225.8872" cy="1494.9974" fill="#F1F1F1" rx="91.8872" ry="20.7774" style="stroke:#181818;stroke-width:0.5;"/><text fill="#000000" font-family="sans-serif" font-size="14" lengthAdjust="spacing" textLength="146" x="152.8872" y="1497.8441">Asignar auto a oficina</text></g><g id="elem_EliminarReserva"><ellipse cx="225.8932" cy="1421.0006" fill="#F1F1F1" rx="77.7532" ry="17.9506" style="stroke:#181818;stroke-width:0.5;"/><text fill="#000000" font-family="sans-serif" font-size="14" lengthAdjust="spacing" textLength="113" x="166.8394" y="1424.6309">Eliminar Reserva</text></g><!--entity cl--><g id="elem_cl"><ellipse cx="40" cy="339.35" fill="#454645" rx="8" ry="8" style="stroke:#454645;stroke-width:0.5;"/><path d="M40,347.35 L40,374.35 M27,355.35 L53,355.35 M40,374.35 L27,389.35 M40,374.35 L53,389.35 " fill="none" style="stroke:#454645;stroke-width:0.5;"/><text fill="#454645" font-family="sans-serif" font-size="14" lengthAdjust="spacing" textLength="39" x="20.5" y="403.8451">Client</text></g><!--entity ve--><g id="elem_ve"><ellipse cx="40" cy="576.35" fill="#454645" rx="8" ry="8" style="stroke:#454645;stroke-width:0.5;"/><path d="M40,584.35 L40,611.35 M27,592.35 L53,592.35 M40,611.35 L27,626.35 M40,611.35 L53,626.35 " fill="none" style="stroke:#454645;stroke-width:0.5;"/><text fill="#454645" font-family="sans-serif" font-size="14" lengthAdjust="spacing" textLength="68" x="6" y="640.8451">Vendedor</text></g><!--entity ad--><g id="elem_ad"><ellipse cx="40" cy="1088.35" fill="#454645" rx="8" ry="8" style="stroke:#454645;stroke-width:0.5;"/><path d="M40,1096.35 L40,1123.35 M27,1104.35 L53,1104.35 M40,1123.35 L27,1138.35 M40,1123.35 L53,1138.35 " fill="none" style="stroke:#454645;stroke-width:0.5;"/><text fill="#454645" font-family="sans-serif" font-size="14" lengthAdjust="spacing" textLength="43" x="18.5" y="1152.8451">Admin</text></g><!--link cl to Login--><g id="link_cl_Login"><path d="M48.3,407.44 C55.19,444.04 65.67,500.71 74,550 C82.66,601.23 75.48,742.18 110,781 C129.4,802.82 156.3046,809.7668 181.9346,812.0968 " fill="none" id="cl-to-Login" style="stroke:#454645;stroke-width:1.0;"/><polygon fill="#454645" points="187.91,812.64,179.3091,807.8416,182.9305,812.1873,178.5848,815.8088,187.91,812.64" style="stroke:#454645;stroke-width:1.0;"/></g><!--link cl to Logout--><g id="link_cl_Logout"><path d="M51.07,407.52 C61.08,438.43 79.45,480.68 110,506 C130.05,522.62 152.1506,529.8315 175.4806,533.9315 " fill="none" id="cl-to-Logout" style="stroke:#454645;stroke-width:1.0;"/><polygon fill="#454645" points="181.39,534.97,173.2182,529.4726,176.4655,534.1046,171.8335,537.3518,181.39,534.97" style="stroke:#454645;stroke-width:1.0;"/></g><!--link cl to ListarAutos--><g id="link_cl_ListarAutos"><path d="M45.73,330.54 C54.86,262.37 76.98,124.27 110,90 C124.25,75.2 138.8276,68.2863 158.4976,63.6863 " fill="none" id="cl-to-ListarAutos" style="stroke:#454645;stroke-width:1.0;"/><polygon fill="#454645" points="164.34,62.32,154.6656,60.4745,159.4714,63.4586,156.4873,68.2643,164.34,62.32" style="stroke:#454645;stroke-width:1.0;"/></g><!--link cl to Reservar--><g id="link_cl_Reservar"><path d="M59.99,380.99 C82.56,389.34 115.5829,397.2773 149.9629,402.6873 " fill="none" id="cl-to-Reservar" style="stroke:#454645;stroke-width:1.0;"/><polygon fill="#454645" points="155.89,403.62,147.6212,398.2696,150.9508,402.8428,146.3776,406.1724,155.89,403.62" style="stroke:#454645;stroke-width:1.0;"/></g><!--link cl to Reservar--><g id="link_cl_Reservar"><path d="M59.99,364.24 C92.38,364.59 152.7724,374.881 190.7124,386.951 " fill="none" id="cl-to-Reservar-1" style="stroke:#454645;stroke-width:1.0;"/><polygon fill="#454645" points="196.43,388.77,189.0662,382.2298,191.6653,387.2542,186.6409,389.8533,196.43,388.77" style="stroke:#454645;stroke-width:1.0;"/></g><!--link cl to AFavoritos--><g id="link_cl_AFavoritos"><path d="M59.99,365.39 C84.03,360.81 120.7558,353.822 156.6358,346.992 " fill="none" id="cl-to-AFavoritos" style="stroke:#454645;stroke-width:1.0;"/><polygon fill="#454645" points="162.53,345.87,152.9408,343.6235,157.6182,346.805,154.4368,351.4824,162.53,345.87" style="stroke:#454645;stroke-width:1.0;"/></g><!--link cl to EFavoritos--><g id="link_cl_EFavoritos"><path d="M59.74,344.27 C72.44,329.03 90.43,310.15 110,298 C126.47,287.78 140.2949,281.8732 158.5749,276.2532 " fill="none" id="cl-to-EFavoritos" style="stroke:#454645;stroke-width:1.0;"/><polygon fill="#454645" points="164.31,274.49,154.5319,273.3114,159.5308,275.9593,156.8828,280.9582,164.31,274.49" style="stroke:#454645;stroke-width:1.0;"/></g><!--link cl to RetAuto--><g id="link_cl_RetAuto"><path d="M49.81,330.54 C59.29,297.68 77.57,251.49 110,224 C125.83,210.58 140.9856,204.0101 160.6956,199.2801 " fill="none" id="cl-to-RetAuto" style="stroke:#454645;stroke-width:1.0;"/><polygon fill="#454645" points="166.53,197.88,156.8451,196.0906,161.668,199.0468,158.7119,203.8698,166.53,197.88" style="stroke:#454645;stroke-width:1.0;"/></g><!--link cl to DevAuto--><g id="link_cl_DevAuto"><path d="M43.06,330.68 C47.66,283.57 62.47,204.21 110,158 C123.95,144.44 137.2301,137.7865 155.8401,132.8565 " fill="none" id="cl-to-DevAuto" style="stroke:#454645;stroke-width:1.0;"/><polygon fill="#454645" points="161.64,131.32,151.9158,129.7581,156.8067,132.6004,153.9644,137.4913,161.64,131.32" style="stroke:#454645;stroke-width:1.0;"/></g><!--link cl to ListarReservas--><g id="link_cl_ListarReservas"><path d="M59.78,393.17 C72.5,408.03 90.49,426.4 110,438 C127.79,448.58 143.3049,454.5153 162.7249,459.7253 " fill="none" id="cl-to-ListarReservas" style="stroke:#454645;stroke-width:1.0;"/><polygon fill="#454645" points="168.52,461.28,160.8639,455.0846,163.6908,459.9844,158.7909,462.8113,168.52,461.28" style="stroke:#454645;stroke-width:1.0;"/></g><!--link ve to Login--><g id="link_ve_Login"><path d="M46.05,644.4 C53.29,684.16 70.45,745.36 110,781 C131.38,800.27 157.456,807.2987 182.276,810.3887 " fill="none" id="ve-to-Login" style="stroke:#454645;stroke-width:1.0;"/><polygon fill="#454645" points="188.23,811.13,179.7931,806.0488,183.2683,810.5123,178.8048,813.9875,188.23,811.13" style="stroke:#454645;stroke-width:1.0;"/></g><!--link ve to Logout--><g id="link_ve_Logout"><path d="M74.43,587.37 C85.54,581.63 98.11,575.62 110,571 C135.28,561.18 158.9447,554.4672 181.7247,548.8472 " fill="none" id="ve-to-Logout" style="stroke:#454645;stroke-width:1.0;"/><polygon fill="#454645" points="187.55,547.41,177.8539,545.6822,182.6956,548.6076,179.7701,553.4493,187.55,547.41" style="stroke:#454645;stroke-width:1.0;"/></g><!--link ve to Reservar--><g id="link_ve_Reservar"><path d="M46.96,567.46 C54.85,529.34 72.44,471.91 110,438 C124.74,424.69 138.6742,418.0943 157.6142,413.1543 " fill="none" id="ve-to-Reservar" style="stroke:#454645;stroke-width:1.0;"/><polygon fill="#454645" points="163.42,411.64,153.7018,410.0409,158.5819,412.9019,155.7209,417.7819,163.42,411.64" style="stroke:#454645;stroke-width:1.0;"/></g><!--link ve to ListarReservas--><g id="link_ve_ListarReservas"><path d="M59.79,567.35 C71.6,546.75 88.65,522.53 110,507 C126.36,495.1 141.0238,488.7874 160.1238,483.5474 " fill="none" id="ve-to-ListarReservas" style="stroke:#454645;stroke-width:1.0;"/><polygon fill="#454645" points="165.91,481.96,156.1724,480.4837,161.0882,483.2828,158.289,488.1986,165.91,481.96" style="stroke:#454645;stroke-width:1.0;"/></g><!--link ve to AcepReservar--><g id="link_ve_AcepReservar"><path d="M74.3,606 C95.41,606 117.61,606 143.89,606 " fill="none" id="ve-to-AcepReservar" style="stroke:#454645;stroke-width:1.0;"/><polygon fill="#454645" points="149.89,606,140.89,602,144.89,606,140.89,610,149.89,606" style="stroke:#454645;stroke-width:1.0;"/></g><!--link ve to RecReservar--><g id="link_ve_RecReservar"><path d="M58.68,644.62 C70.42,666.35 87.76,692.37 110,709 C125.07,720.27 137.9936,726.3341 155.8736,731.7041 " fill="none" id="ve-to-RecReservar" style="stroke:#454645;stroke-width:1.0;"/><polygon fill="#454645" points="161.62,733.43,154.1509,727.0103,156.8313,731.9918,151.8498,734.6722,161.62,733.43" style="stroke:#454645;stroke-width:1.0;"/></g><!--link ve to EntregarAuto--><g id="link_ve_EntregarAuto"><path d="M74.48,624.52 C85.58,630.25 98.14,636.28 110,641 C131.36,649.5 149.9001,655.38 170.6501,661.16 " fill="none" id="ve-to-EntregarAuto" style="stroke:#454645;stroke-width:1.0;"/><polygon fill="#454645" points="176.43,662.77,168.8334,656.5017,171.6134,661.4283,166.6867,664.2083,176.43,662.77" style="stroke:#454645;stroke-width:1.0;"/></g><!--link ad to Login--><g id="link_ad_Login"><path d="M45.93,1079.55 C55.26,1012.52 77.56,878.23 110,845 C130.25,824.26 156.7427,817.256 182.0027,814.606 " fill="none" id="ad-to-Login" style="stroke:#454645;stroke-width:1.0;"/><polygon fill="#454645" points="187.97,813.98,178.6018,810.9409,182.9973,814.5017,179.4365,818.8972,187.97,813.98" style="stroke:#454645;stroke-width:1.0;"/></g><!--link ad to Logout--><g id="link_ad_Logout"><path d="M43.39,1079.74 C51.1,961.81 76.73,609.53 110,571 C127.19,551.1 149.6466,543.816 173.9066,540.776 " fill="none" id="ad-to-Logout" style="stroke:#454645;stroke-width:1.0;"/><polygon fill="#454645" points="179.86,540.03,170.4325,537.1801,174.8988,540.6517,171.4272,545.118,179.86,540.03" style="stroke:#454645;stroke-width:1.0;"/></g><!--link ad to CrearAuto--><g id="link_ad_CrearAuto"><path d="M43.56,1156.62 C48.68,1202.27 64.02,1277.52 110,1321 C125.27,1335.44 140.6306,1342.1689 160.6906,1346.5889 " fill="none" id="ad-to-CrearAuto" style="stroke:#454645;stroke-width:1.0;"/><polygon fill="#454645" points="166.55,1347.88,158.6215,1342.0371,161.6671,1346.8041,156.9001,1349.8497,166.55,1347.88" style="stroke:#454645;stroke-width:1.0;"/></g><!--link ad to EliminarAuto--><g id="link_ad_EliminarAuto"><path d="M51.48,1156.52 C61.65,1186.88 80.03,1228.11 110,1253 C125.76,1266.09 140.5855,1272.6595 160.0255,1277.6095 " fill="none" id="ad-to-EliminarAuto" style="stroke:#454645;stroke-width:1.0;"/><polygon fill="#454645" points="165.84,1279.09,158.1053,1272.9929,160.9946,1277.8562,156.1313,1280.7455,165.84,1279.09" style="stroke:#454645;stroke-width:1.0;"/></g><!--link ad to ListarClientes--><g id="link_ad_ListarClientes"><path d="M61.96,1143.74 C74.57,1157.72 91.7,1174.29 110,1185 C128.31,1195.71 144.4699,1201.7442 164.2599,1206.9842 " fill="none" id="ad-to-ListarClientes" style="stroke:#454645;stroke-width:1.0;"/><polygon fill="#454645" points="170.06,1208.52,162.3837,1202.3496,165.2266,1207.2402,160.336,1210.0831,170.06,1208.52" style="stroke:#454645;stroke-width:1.0;"/></g><!--link ad to CrearCliente--><g id="link_ad_CrearCliente"><path d="M61.74,1121.83 C88.13,1126.71 128.8002,1134.2283 165.4402,1141.0083 " fill="none" id="ad-to-CrearCliente" style="stroke:#454645;stroke-width:1.0;"/><polygon fill="#454645" points="171.34,1142.1,163.2181,1136.5292,166.4235,1141.1902,161.7624,1144.3956,171.34,1142.1" style="stroke:#454645;stroke-width:1.0;"/></g><!--link ad to EliminarCliente--><g id="link_ad_EliminarCliente"><path d="M61.74,1114.17 C87.1,1109.48 125.18,1102.4309 161.09,1095.7909 " fill="none" id="ad-to-EliminarCliente" style="stroke:#454645;stroke-width:1.0;"/><polygon fill="#454645" points="166.99,1094.7,157.4127,1092.4031,162.0733,1095.6091,158.8673,1100.2697,166.99,1094.7" style="stroke:#454645;stroke-width:1.0;"/></g><!--link ad to ListarOficina--><g id="link_ad_ListarOficina"><path d="M61.82,1091.47 C74.38,1077.07 91.51,1060 110,1049 C128.32,1038.1 144.5867,1032.0038 164.4667,1026.7838 " fill="none" id="ad-to-ListarOficina" style="stroke:#454645;stroke-width:1.0;"/><polygon fill="#454645" points="170.27,1025.26,160.5492,1023.6768,165.4339,1026.5298,162.5809,1031.4145,170.27,1025.26" style="stroke:#454645;stroke-width:1.0;"/></g><!--link ad to CrearOficina--><g id="link_ad_CrearOficina"><path d="M51.07,1079.48 C61.08,1048.57 79.45,1006.32 110,981 C125.66,968.02 140.3453,961.5896 159.6853,956.8096 " fill="none" id="ad-to-CrearOficina" style="stroke:#454645;stroke-width:1.0;"/><polygon fill="#454645" points="165.51,955.37,155.8132,953.6463,160.6561,956.5697,157.7326,961.4126,165.51,955.37" style="stroke:#454645;stroke-width:1.0;"/></g><!--link ad to EliminarOficina--><g id="link_ad_EliminarOficina"><path d="M43.74,1079.57 C49.03,1034.1 64.55,959.03 110,915 C123.85,901.58 136.9194,894.8976 155.3294,889.7776 " fill="none" id="ad-to-EliminarOficina" style="stroke:#454645;stroke-width:1.0;"/><polygon fill="#454645" points="161.11,888.17,151.3673,886.7277,156.2928,889.5097,153.5108,894.4352,161.11,888.17" style="stroke:#454645;stroke-width:1.0;"/></g><!--link ad to AsignarAutoAOfi--><g id="link_ad_AsignarAutoAOfi"><path d="M44.09,1156.53 C51.16,1235.44 70.99,1411.74 110,1456 C120.86,1468.33 130.1479,1474.6644 145.6279,1480.4344 " fill="none" id="ad-to-AsignarAutoAOfi" style="stroke:#454645;stroke-width:1.0;"/><polygon fill="#454645" points="151.25,1482.53,144.2138,1475.6385,146.5649,1480.7837,141.4197,1483.1347,151.25,1482.53" style="stroke:#454645;stroke-width:1.0;"/></g><!--link ad to EliminarReserva--><g id="link_ad_EliminarReserva"><path d="M46.3,1156.55 C56.08,1222.3 78.83,1352.21 110,1385 C122.67,1398.33 134.4668,1405.0133 152.0268,1410.3233 " fill="none" id="ad-to-EliminarReserva" style="stroke:#454645;stroke-width:1.0;"/><polygon fill="#454645" points="157.77,1412.06,150.313,1405.6262,152.984,1410.6128,147.9975,1413.2837,157.77,1412.06" style="stroke:#454645;stroke-width:1.0;"/></g><!--SRC=[TPFDRiCW3CVlF0NhlQymASgoKwL9EUoEY9iYfM426ccRzkuZYPqOGc_unzyV6FibtE0ECjXl8GQuXdYIplIt83lZG0TZHo6K3jR9KpqO6CD9AY_rGF0JnWuwwnOy0U6gkvjnOQeJGioXrDWF8DiOeggLaxz2oeS7hJp8qyNsA5zEsPLz1BgBHtvPzGxw64p9gvgiCy4kmkeTBS_5pM1YKL7TGIflYl8MWd5px0VA8gZYcMlUOBB314mKIIww61ymZb_ViO1PbYIi7KIP0mzkKfXnERjZDBpXyGWb_T7m5RAWCoi5Ra7VrC-X0btIDcDO6r_HkudaZryVjRLdCNFDzZ6RZCYJLkfb4e6_laPqp8tYFJrAYnLmCS627kkmLwEZWjVniQ9Z6QZTooWejpAuc611NtdJKz_Y3d0ll9eRM4NFOfQMVJH1PE8lRgqUvFdyYYkv6_CEaiKc6T4sBcYpNKJI70Xj5fgqGqyYPkCk9c1bxiPS9bfR1BfD8o1D5cFpr3bA9bseZYNVZJavMll88qY6crpI8UQkD7wPTuRJwUF-6Sl72N4-BvaQc_0F]--></g></svg>